<?xml version="1.0" encoding="UTF-8"?>
<svg version="1.1" xmlns="http://www.w3.org/2000/svg" width="113" height="160">
<path d="M0 0 C3.05320667 1.31320717 5.87850958 2.84968482 8.7734375 4.48046875 C13.59147254 6.74949493 18.41026496 7.4033823 23.65234375 8.1640625 C28.04682087 9.26139984 30.62191197 10.85705328 33.1027832 14.71484375 C34.19215918 16.68036465 35.20181279 18.66809014 36.1875 20.6875 C38.24657145 25.60883711 38.24657145 25.60883711 42 29 C42 29.66 42 30.32 42 31 C42.66 31 43.32 31 44 31 C44 31.66 44 32.32 44 33 C45.485 33.495 45.485 33.495 47 34 C50.54173966 38.31243223 50.48173936 42.41197633 50.50390625 47.73828125 C50.51389145 48.57787888 50.52387665 49.4174765 50.53416443 50.28251648 C50.5493152 52.05507499 50.55639116 53.82771861 50.5559082 55.6003418 C50.56245568 58.29426279 50.61692291 60.98446729 50.67382812 63.67773438 C50.82507416 79.2390497 50.82507416 79.2390497 45.48803711 84.94213867 C44 86 44 86 42 86 C42 86.66 42 87.32 42 88 C41.40703125 88.57234375 40.8140625 89.1446875 40.203125 89.734375 C37.64115388 92.36902615 36.3320081 94.94216489 34.75 98.25 C34.22921875 99.32765625 33.7084375 100.4053125 33.171875 101.515625 C32.78515625 102.33546875 32.3984375 103.1553125 32 104 C31.34 104 30.68 104 30 104 C29.505 105.485 29.505 105.485 29 107 C28.01 107.66 27.02 108.32 26 109 C26.35191406 109.85078125 26.70382813 110.7015625 27.06640625 111.578125 C30.18019159 119.22031355 33.11436648 126.91030769 35.875 134.6875 C36.1851001 135.54827148 36.4952002 136.40904297 36.81469727 137.29589844 C37.10014404 138.10961914 37.38559082 138.92333984 37.6796875 139.76171875 C37.93476074 140.48319092 38.18983398 141.20466309 38.45263672 141.94799805 C39 144 39 144 39 148 C28.55307263 145.2922486 28.55307263 145.2922486 23.5 143.3125 C20.15483568 141.82443828 20.15483568 141.82443828 17 142 C15.7069894 144.24923704 14.41555023 146.49935185 13.125 148.75 C12.76019531 149.38421875 12.39539063 150.0184375 12.01953125 150.671875 C10.2603169 153.74250368 8.53126626 156.80851875 7 160 C6.01 159.67 5.02 159.34 4 159 C2.8765546 156.53740769 1.94121291 154.17390293 1.0625 151.625 C0.80452637 150.90634766 0.54655273 150.18769531 0.28076172 149.44726562 C-0.24092539 147.99160601 -0.75788406 146.53424282 -1.27001953 145.07519531 C-2.27888207 142.20719143 -3.32794684 139.35424457 -4.375 136.5 C-4.91753369 135.00031338 -5.45958339 133.50045082 -6 132 C-9.90216223 141.13565041 -12.91697676 150.56594888 -16 160 C-16.99 160 -17.98 160 -19 160 C-19 159.01 -19 158.02 -19 157 C-19.66 157 -20.32 157 -21 157 C-21.39832031 156.25234375 -21.79664063 155.5046875 -22.20703125 154.734375 C-22.73683594 153.74953125 -23.26664063 152.7646875 -23.8125 151.75 C-24.33457031 150.77546875 -24.85664062 149.8009375 -25.39453125 148.796875 C-26.78965188 146.36644588 -28.26195961 144.19212301 -30 142 C-37.50931455 143.9172718 -44.75803759 146.24049015 -52 149 C-51.65453872 144.94082991 -51.00622116 141.7448992 -49.25 138.0625 C-47.22403916 133.7903652 -45.84917636 129.45534604 -44.5 124.9375 C-42.80804893 119.3013635 -40.88969511 114.13723575 -38 109 C-38.90492187 108.33226563 -39.80984375 107.66453125 -40.7421875 106.9765625 C-44.3581413 103.96362155 -46.13187242 100.5745116 -48.125 96.375 C-50.21023105 92.03704946 -51.89070862 88.72126407 -56 86 C-56 85.34 -56 84.68 -56 84 C-56.66 84 -57.32 84 -58 84 C-58 83.34 -58 82.68 -58 82 C-58.66 82 -59.32 82 -60 82 C-63.08921481 76.72259137 -63.7628905 72.60319053 -62.4921875 66.6015625 C-61.99589125 63.97828231 -61.86695482 61.60447637 -61.875 58.9375 C-61.87757812 57.98230469 -61.88015625 57.02710938 -61.8828125 56.04296875 C-62.00348927 52.90939531 -62.36742132 49.86137969 -62.75 46.75 C-63.27392681 41.05321835 -62.48117132 38.51611415 -59 34 C-56.875 31.5625 -56.875 31.5625 -55 30 C-54.34 30 -53.68 30 -53 30 C-53 29.34 -53 28.68 -53 28 C-52.34 28 -51.68 28 -51 28 C-50.690625 26.824375 -50.690625 26.824375 -50.375 25.625 C-47.51560926 18.08660622 -44.2547609 11.94224225 -37 8 C-34.34695413 7.38691272 -31.86789323 6.91842002 -29.1875 6.5625 C-24.40460317 5.82161777 -20.35891495 4.99648848 -16.25 2.3125 C-11.01655997 -0.94474541 -5.9946531 -1.08993693 0 0 Z M-37.07421875 32.359375 C-40.9533877 37.59665971 -43.33237131 42.72715053 -45 49 C-45.33 49.99 -45.66 50.98 -46 52 C-46.57033721 59.91891285 -46.11754093 66.68518446 -43 74 C-42.608125 75.010625 -42.21625 76.02125 -41.8125 77.0625 C-41.544375 77.701875 -41.27625 78.34125 -41 79 C-40.34 79 -39.68 79 -39 79 C-38.90332031 79.58007812 -38.80664062 80.16015625 -38.70703125 80.7578125 C-36.98027984 86.2338087 -31.69710256 89.99214216 -26.94140625 92.81640625 C-16.52334252 98.10832357 -6.3709884 99.70710574 5.1796875 97.3515625 C16.8682158 93.47746105 24.48234266 85.32172051 30.8125 75.0625 C35.06900854 64.08518849 34.49871925 54.10463066 31 43 C25.97762122 31.79623194 17.31796951 24.43874058 6 20 C-8.98974218 14.96195387 -26.88845147 20.7733045 -37.07421875 32.359375 Z M-32 109 C-28 110 -28 110 -28 110 Z M16 109 C20 110 20 110 20 110 Z M-2 117 C-1 119 -1 119 -1 119 Z M-5 125 C-4 127 -4 127 -4 127 Z M-6 128 C-5 130 -5 130 -5 130 Z " fill="#FB872E" transform="translate(63,0)"/>
<path d="M0 0 C0 18.81 0 37.62 0 57 C-5.28 57 -10.56 57 -16 57 C-16.33 43.47 -16.66 29.94 -17 16 C-20.3 17.32 -23.6 18.64 -27 20 C-27.66 15.71 -28.32 11.42 -29 7 C-26.99659296 5.7899298 -24.98182597 4.63744452 -22.9375 3.5 C-21.81214844 2.8503125 -20.68679687 2.200625 -19.52734375 1.53125 C-15 0 -15 0 0 0 Z " fill="#FB9438" transform="translate(66,30)"/>
<path d="" fill="#FF5907" transform="translate(0,0)"/>
</svg>
