<?xml version="1.0" encoding="UTF-8"?>
<svg version="1.1" xmlns="http://www.w3.org/2000/svg" width="132" height="138">
<path d="M0 0 C0.7273938 0.01012115 1.4547876 0.02024231 2.20422363 0.03067017 C2.97866821 0.02190857 3.75311279 0.01314697 4.55102539 0.00411987 C7.1078718 -0.01786518 9.66298503 -0.00332594 12.21984863 0.01358032 C13.99817232 0.0102119 15.77649376 0.00535906 17.55480957 -0.00091553 C21.28061863 -0.0082856 25.00582806 0.00242264 28.73156738 0.02578735 C33.50701625 0.05427563 38.2810602 0.03787232 43.05645752 0.00792503 C46.72825707 -0.01014455 50.39972362 -0.00439157 54.0715332 0.008564 C55.8321957 0.01189897 57.59288845 0.00780769 59.35351562 -0.00383377 C61.81498251 -0.01653754 64.27417609 0.00282454 66.73547363 0.03067017 C67.82656433 0.01548843 67.82656433 0.01548843 68.93969727 0 C72.71505047 0.07910996 74.18464881 0.39745068 76.92224121 3.0869751 C79.28733046 7.04609309 78.9768281 9.11482758 78.46984863 13.67764282 C77.09484863 16.17764282 77.09484863 16.17764282 75.46984863 17.67764282 C74.80984863 17.67764282 74.14984863 17.67764282 73.46984863 17.67764282 C73.48555908 18.86728638 73.50126953 20.05692993 73.51745605 21.28262329 C73.5721501 25.73681753 73.60634107 30.19098265 73.63464355 34.64541626 C73.64964085 36.5657146 73.67004546 38.48597921 73.69616699 40.40615845 C73.73295214 43.18163424 73.74966584 45.95665346 73.76281738 48.73233032 C73.77830124 49.57754242 73.7937851 50.42275452 73.80973816 51.2935791 C73.81208183 59.77591473 71.57305647 67.25279055 67.46984863 74.67764282 C66.80984863 74.67764282 66.14984863 74.67764282 65.46984863 74.67764282 C65.21719238 75.26416626 64.96453613 75.8506897 64.70422363 76.45498657 C61.50565216 82.21443963 55.41656115 86.15029 49.46984863 88.67764282 C49.96484863 94.12264282 49.96484863 94.12264282 50.46984863 99.67764282 C51.36187988 99.64283813 52.25391113 99.60803345 53.17297363 99.57217407 C54.34344238 99.54510376 55.51391113 99.51803345 56.71984863 99.49014282 C58.46008301 99.43793579 58.46008301 99.43793579 60.23547363 99.38467407 C63.73287738 99.70146789 65.04079561 100.19653867 67.46984863 102.67764282 C68.56491355 105.96283757 68.56945472 108.41427697 68.53234863 111.86514282 C68.5233252 112.95182251 68.51430176 114.0385022 68.50500488 115.15811157 C68.49340332 115.98955688 68.48180176 116.8210022 68.46984863 117.67764282 C69.35672363 117.78076782 70.24359863 117.88389282 71.15734863 117.99014282 C74.63084803 118.71105779 76.67792119 119.5061437 79.46984863 121.67764282 C81.802079 125.60003026 81.51155253 128.32142651 80.46984863 132.67764282 C79.46984863 135.67764282 79.46984863 135.67764282 77.39685059 137.33889771 C73.75896639 139.00278443 70.56054142 139.11348205 66.63781738 139.0975647 C65.86483307 139.10603424 65.09184875 139.11450378 64.29544067 139.12322998 C61.74924106 139.14656238 59.2036469 139.1476232 56.65734863 139.14639282 C54.88285074 139.15349573 53.10835514 139.16119492 51.3338623 139.16946411 C47.61838389 139.18289956 43.90311795 139.18448149 40.18762207 139.17861938 C35.42919581 139.17271841 30.67178813 139.20333512 25.91355896 139.24373627 C22.25035115 139.26959736 18.5873893 139.27249226 14.92410278 139.2688446 C13.16982458 139.27053677 11.41553514 139.28018863 9.66134644 139.29798889 C7.20749839 139.32015277 4.75572149 139.31049255 2.30187988 139.2928772 C1.5796524 139.30614044 0.85742493 139.31940369 0.11331177 139.33306885 C-3.80181012 139.26784124 -5.39432662 138.78963678 -8.45715332 136.26419067 C-11.47487614 132.49887865 -11.99485882 130.51060031 -11.53015137 125.67764282 C-9.71719647 122.18602598 -8.45630995 120.17460597 -4.96765137 118.30264282 C-2.53015137 117.67764282 -2.53015137 117.67764282 0.46984863 117.67764282 C0.49562988 116.71342407 0.52141113 115.74920532 0.54797363 114.75576782 C0.60469238 113.49248657 0.66141113 112.22920532 0.71984863 110.92764282 C0.78945801 109.0481897 0.78945801 109.0481897 0.86047363 107.13076782 C1.46984863 103.67764282 1.46984863 103.67764282 3.09484863 101.27139282 C6.20942651 99.18134714 8.49367457 99.07668978 12.21984863 98.92764282 C13.39031738 98.87092407 14.56078613 98.81420532 15.76672363 98.75576782 C16.65875488 98.72998657 17.55078613 98.70420532 18.46984863 98.67764282 C19.12984863 95.37764282 19.78984863 92.07764282 20.46984863 88.67764282 C19.21172363 88.05889282 17.95359863 87.44014282 16.65734863 86.80264282 C14.10026103 85.54505876 11.85442811 84.26736248 9.46984863 82.67764282 C9.46984863 82.01764282 9.46984863 81.35764282 9.46984863 80.67764282 C8.63453613 80.39920532 8.63453613 80.39920532 7.78234863 80.11514282 C1.67351747 76.31776129 -1.99826956 68.35344382 -3.59997559 61.57046509 C-4.63132969 56.75891793 -4.78823946 52.17289386 -4.72546387 47.26748657 C-4.72121902 45.98811974 -4.72121902 45.98811974 -4.71688843 44.6829071 C-4.70580968 41.99350164 -4.6807293 39.3044454 -4.65515137 36.61514282 C-4.64510562 34.77725705 -4.63598258 32.93936599 -4.62780762 31.10147095 C-4.60591087 26.62672969 -4.5714681 22.15224519 -4.53015137 17.67764282 C-5.52015137 17.34764282 -6.51015137 17.01764282 -7.53015137 16.67764282 C-9.65827229 13.48546144 -9.82876367 11.5734485 -9.99108887 7.81045532 C-8.77903683 2.20214672 -5.55645331 0.1164317 0 0 Z M23.46984863 29.67764282 C22.87172363 29.9947522 22.27359863 30.31186157 21.65734863 30.63858032 C16.14969951 33.98590156 13.47306709 38.63268844 11.46984863 44.67764282 C10.2009428 51.33166123 11.66029514 56.55476458 14.91125488 62.41201782 C18.41711892 67.50826129 22.59798558 70.73775325 28.46984863 72.67764282 C36.62836793 73.77390779 43.76495891 72.66765509 50.46984863 67.67764282 C50.79984863 66.68764282 51.12984863 65.69764282 51.46984863 64.67764282 C52.12984863 64.67764282 52.78984863 64.67764282 53.46984863 64.67764282 C57.16179332 58.24651337 59.61681781 51.9800249 57.99328613 44.47451782 C57.28725734 42.44177559 56.4563333 40.5886989 55.46984863 38.67764282 C54.93359863 37.62576782 54.39734863 36.57389282 53.84484863 35.49014282 C49.89453323 30.81213774 43.65996716 27.09990283 37.45422363 26.47451782 C32.063904 26.36143419 28.31777606 27.07412624 23.46984863 29.67764282 Z " fill="#E8A043" transform="translate(31.5301513671875,-0.677642822265625)"/>
<path d="M0 0 C0 5.94 0 11.88 0 18 C-2.64 17.67 -5.28 17.34 -8 17 C-7.56771676 23.91653188 -4.91361483 29.08638517 0 34 C0.65893529 36.19261437 1.25386231 38.40471232 1.8125 40.625 C3.44171025 46.61311618 5.49017582 50.93025396 9 56 C9 56.66 9 57.32 9 58 C9.66 58 10.32 58 11 58 C10.67 58.99 10.34 59.98 10 61 C-5.02294912 53.83741907 -16.81339827 45.65237205 -24 30 C-25.24879749 26.40052489 -25.16728409 22.85096106 -25.1875 19.0625 C-25.20167969 17.85722656 -25.21585938 16.65195312 -25.23046875 15.41015625 C-24.8491035 9.76724331 -22.8702402 6.08525354 -19 2 C-13.3144792 -1.92571674 -6.45982873 -2.15327624 0 0 Z " fill="#DE933C" transform="translate(25,20)"/>
<path d="M0 0 C4.60163578 2.21560241 8.45059325 5.52027845 11 10 C11.77184266 13.41220298 11.80791426 16.69932718 11.75 20.1875 C11.74331299 21.12134521 11.73662598 22.05519043 11.72973633 23.01733398 C11.44620107 30.8993396 9.25943352 36.06483627 4 42 C3.47019531 42.75152344 2.94039062 43.50304688 2.39453125 44.27734375 C1.93433594 44.84582031 1.47414063 45.41429687 1 46 C0.34 46 -0.32 46 -1 46 C-1 46.66 -1 47.32 -1 48 C-1.66 48 -2.32 48 -3 48 C-3 48.66 -3 49.32 -3 50 C-9.2393786 55.3731742 -16.44346746 58.88257118 -24 62 C-23.49396008 59.83125748 -23.00016187 58.00032373 -22 56 C-21.34 56 -20.68 56 -20 56 C-18.24733019 51.9895241 -17.28141638 48.0114784 -16.3125 43.75 C-14.84122866 37.72392389 -12.65413733 33.63934049 -8.55078125 29 C-5.81398092 25.47042376 -5 21.45372525 -5 17 C-5.7425 17.33 -6.485 17.66 -7.25 18 C-10 19 -10 19 -14 19 C-14.08071788 16.20775927 -14.14035408 13.41783434 -14.1875 10.625 C-14.22520508 9.43390625 -14.22520508 9.43390625 -14.26367188 8.21875 C-14.29004405 6.14413852 -14.15486462 4.06899135 -14 2 C-9.52698157 -0.98201229 -5.24399237 -0.60189295 0 0 Z " fill="#ECA646" transform="translate(121,19)"/>
<path d="M0 0 C2.25 0.1875 2.25 0.1875 5 1 C5.61875 1.78375 6.2375 2.5675 6.875 3.375 C9.63058169 6.77895385 11.93045205 7.51304979 16 9 C16.37828947 13.53947368 16.37828947 13.53947368 14.5625 15.75 C12.17248622 19.19161985 12.25430077 22.89611165 12 27 C8.14776761 28.19069001 5.1441004 27.74774116 1.21875 27.15625 C-1.1018185 26.99282968 -2.76872108 27.4218742 -5 28 C-6.6875 27.0625 -6.6875 27.0625 -8 25 C-8.25665342 22.97885429 -8.50895687 20.95599109 -8.6796875 18.92578125 C-9.10218394 16.38565022 -10.43405703 14.99301832 -12 13 C-11.828125 11.01171875 -11.828125 11.01171875 -11 9 C-9.2578125 7.91015625 -9.2578125 7.91015625 -7.125 7.0625 C-3.37857033 5.37727805 -1.71341291 3.85517905 0 0 Z " fill="#E69F43" transform="translate(64,34)"/>
</svg>
