<?xml version="1.0" encoding="UTF-8"?>
<svg version="1.1" xmlns="http://www.w3.org/2000/svg" width="115" height="138">
<path d="M0 0 C2.31640625 1.6875 2.31640625 1.6875 4.5625 4 C17.05768143 15.87974712 32.49119118 22.40183709 49.26953125 25.359375 C52 26 52 26 54 28 C54.25396729 29.91955566 54.25396729 29.91955566 54.25878906 32.29101562 C54.26509338 33.17954224 54.27139771 34.06806885 54.27789307 34.98352051 C54.2738446 35.94802124 54.26979614 36.91252197 54.265625 37.90625 C54.26753845 38.90072144 54.2694519 39.89519287 54.27142334 40.9197998 C54.2727869 43.0314967 54.26907861 45.14320193 54.26074219 47.25488281 C54.25013512 50.45918133 54.26058479 53.66290756 54.2734375 56.8671875 C54.27211417 58.92187622 54.2695482 60.9765646 54.265625 63.03125 C54.26967346 63.97955688 54.27372192 64.92786377 54.27789307 65.90490723 C54.21709154 74.71743807 52.99378026 82.69937081 49.125 90.6875 C48.33222656 92.32912109 48.33222656 92.32912109 47.5234375 94.00390625 C45.23362064 98.50721275 42.805057 102.7924145 40 107 C39.34 107 38.68 107 38 107 C37.731875 107.763125 37.46375 108.52625 37.1875 109.3125 C36.04865495 111.88988618 35.18583329 113.26954864 33 115 C32.34 115 31.68 115 31 115 C31 115.66 31 116.32 31 117 C29.19042969 118.46508789 29.19042969 118.46508789 26.671875 120.16015625 C25.75728516 120.78164551 24.84269531 121.40313477 23.90039062 122.04345703 C22.94326172 122.68911621 21.98613281 123.33477539 21 124 C19.21260575 125.24735787 17.42613503 126.49604023 15.640625 127.74609375 C13.84458256 128.97777742 12.0477051 130.20824434 10.25 131.4375 C9.34378906 132.07365234 8.43757813 132.70980469 7.50390625 133.36523438 C6.62089844 133.96529297 5.73789063 134.56535156 4.828125 135.18359375 C4.0434082 135.72556396 3.25869141 136.26753418 2.45019531 136.82592773 C-0.60642145 138.29058198 -2.64440647 138.35212159 -6 138 C-8.06713867 137.1171875 -8.06713867 137.1171875 -9.91796875 135.875 C-10.60963135 135.41963867 -11.30129395 134.96427734 -12.01391602 134.49511719 C-12.73119873 134.00172852 -13.44848145 133.50833984 -14.1875 133 C-14.93636475 132.49887695 -15.68522949 131.99775391 -16.45678711 131.48144531 C-18.65009105 130.00461594 -20.82760614 128.50737533 -23 127 C-24.08023438 126.25234375 -25.16046875 125.5046875 -26.2734375 124.734375 C-37.56861419 116.6980308 -37.56861419 116.6980308 -42 112 C-42 111.34 -42 110.68 -42 110 C-42.66 110 -43.32 110 -44 110 C-45.54158669 107.92536959 -46.94026172 105.87102875 -48.3125 103.6875 C-48.71476807 103.05247559 -49.11703613 102.41745117 -49.53149414 101.76318359 C-58.12024234 87.95260119 -61.11724124 74.80584433 -61.203125 58.6953125 C-61.20882507 57.8495163 -61.21452515 57.00372009 -61.22039795 56.1322937 C-61.22976681 54.36262231 -61.23634921 52.59293411 -61.24023438 50.82324219 C-61.25005057 48.11102871 -61.28119218 45.39953985 -61.3125 42.6875 C-61.31902113 40.96094196 -61.32427508 39.23437856 -61.328125 37.5078125 C-61.3466452 36.29377243 -61.3466452 36.29377243 -61.36553955 35.0552063 C-61.34312231 29.44149324 -61.34312231 29.44149324 -59.69549561 27.32150269 C-56.93724334 25.17166652 -53.6105134 24.89210076 -50.25 24.25 C-37.14072418 21.42549612 -26.47807301 15.78963575 -15.70703125 7.91796875 C-13.50449043 6.35743839 -11.45068184 5.10543882 -9 4 C-9 3.34 -9 2.68 -9 2 C-5.4968427 -0.3354382 -4.12308641 -0.49913782 0 0 Z M-13.52734375 35.46484375 C-17.78504633 40.51238101 -18.1344081 43.71964774 -18.0625 50.125 C-18.05798828 50.87910156 -18.05347656 51.63320313 -18.04882812 52.41015625 C-18.03703499 54.27347127 -18.01909942 56.13674555 -18 58 C-18.886875 58.061875 -19.77375 58.12375 -20.6875 58.1875 C-24.88512384 59.21710585 -26.28786682 60.66810479 -29 64 C-29.74621105 67.18782096 -29.74621105 67.18782096 -29.62890625 70.65625 C-29.63083984 71.92597656 -29.63277344 73.19570312 -29.63476562 74.50390625 C-29.61091797 75.82261719 -29.58707031 77.14132813 -29.5625 78.5 C-29.57345703 79.81871094 -29.58441406 81.13742188 -29.59570312 82.49609375 C-29.70421713 91.10533913 -29.70421713 91.10533913 -25 98 C-21.17671223 99.27442926 -17.55588082 99.18195319 -13.5703125 99.203125 C-12.742966 99.20882507 -11.91561951 99.21452515 -11.0632019 99.22039795 C-9.31314368 99.22984023 -7.56306773 99.23637887 -5.81298828 99.24023438 C-3.14193569 99.24993847 -0.47165325 99.28096785 2.19921875 99.3125 C3.90103711 99.31903058 5.60286096 99.32428084 7.3046875 99.328125 C8.10067352 99.3404718 8.89665955 99.3528186 9.71676636 99.36553955 C14.2576003 99.34738718 17.41008726 99.09054181 21 96 C24.01673369 90.57568624 23.32973706 84.53297027 23.3125 78.5 C23.32861328 77.37207031 23.34472656 76.24414062 23.36132812 75.08203125 C23.36197266 73.99277344 23.36261719 72.90351562 23.36328125 71.78125 C23.36626221 70.79189453 23.36924316 69.80253906 23.37231445 68.78320312 C22.93485732 65.51303179 21.92714839 63.65670553 20 61 C17.03759752 58.8522582 15.68553144 58 12 58 C12.03480469 57.154375 12.06960937 56.30875 12.10546875 55.4375 C12.29713989 47.40556632 12.22197864 41.22190305 7.1875 34.625 C0.66927974 29.78289352 -7.55823971 29.73999972 -13.52734375 35.46484375 Z " fill="#FA8F34" transform="translate(61,0)"/>
<path d="M0 0 C1.22264305 -0.0049926 1.22264305 -0.0049926 2.46998596 -0.01008606 C4.19751418 -0.01515867 5.92505223 -0.01749428 7.65258789 -0.01733398 C10.3017587 -0.01951917 12.95051241 -0.03766746 15.59960938 -0.05664062 C17.27473815 -0.05957469 18.94986892 -0.0615594 20.625 -0.0625 C21.42087021 -0.06968552 22.21674042 -0.07687103 23.03672791 -0.08427429 C28.65008398 -0.06085352 28.65008398 -0.06085352 30.87890625 2.16796875 C31.33373392 5.96143366 31.20293975 9.78788004 31.19140625 13.60546875 C31.20751953 14.66830078 31.22363281 15.73113281 31.24023438 16.82617188 C31.24087891 17.84517578 31.24152344 18.86417969 31.2421875 19.9140625 C31.24516846 20.84919678 31.24814941 21.78433105 31.2512207 22.74780273 C30.87890625 25.16796875 30.87890625 25.16796875 29.83276367 26.97363281 C26.79906121 28.82804646 23.70240408 28.57543364 20.25390625 28.53125 C19.13894775 28.53199776 19.13894775 28.53199776 18.00146484 28.53276062 C16.43128788 28.53042208 14.86110704 28.52070643 13.29101562 28.50415039 C10.88767983 28.48055489 8.48545346 28.48359101 6.08203125 28.49023438 C4.55598297 28.48465747 3.02993936 28.47754752 1.50390625 28.46875 C0.78509277 28.46966141 0.0662793 28.47057281 -0.67431641 28.47151184 C-4.36722105 28.41903565 -5.96607201 28.27131658 -9.12109375 26.16796875 C-9.47753906 23.66186523 -9.47753906 23.66186523 -9.44921875 20.5390625 C-9.4440625 19.42208984 -9.43890625 18.30511719 -9.43359375 17.15429688 C-9.41296875 15.98318359 -9.39234375 14.81207031 -9.37109375 13.60546875 C-9.3659375 12.43048828 -9.36078125 11.25550781 -9.35546875 10.04492188 C-9.26274082 0.01291875 -9.26274082 0.01291875 0 0 Z " fill="#FD8D33" transform="translate(47.12109375,64.83203125)"/>
<path d="M0 0 C2.703125 2.046875 2.703125 2.046875 5 5 C5.37353815 7.88371451 5.48712853 9.98289962 5.3125 12.8125 C5.209375 15.184375 5.10625 17.55625 5 20 C-0.28 20 -5.56 20 -11 20 C-11.0825 17.4425 -11.165 14.885 -11.25 12.25 C-11.28641602 11.45110352 -11.32283203 10.65220703 -11.36035156 9.82910156 C-11.41481416 6.34173827 -11.26895799 4.37047359 -9.19921875 1.51953125 C-5.94143981 -0.73140304 -3.86643244 -0.61048933 0 0 Z " fill="#F9983B" transform="translate(61,38)"/>
</svg>
