<?xml version="1.0" encoding="UTF-8"?>
<svg version="1.1" xmlns="http://www.w3.org/2000/svg" width="103" height="121">
    <path
        d="M0 0 C2.875 1.875 2.875 1.875 5 4 C5 4.66 5 5.32 5 6 C5.66 6.2475 6.32 6.495 7 6.75 C9.34043646 7.72518186 11.50917751 8.76779066 13.75 9.9375 C22.03249905 14.0481868 29.72034296 15.49530848 38.88037109 16.35400391 C44.82450119 16.9122506 44.82450119 16.9122506 47 18 C48.1932508 21.57975241 48.14334969 24.83747316 48.1328125 28.5625 C48.13376923 29.30902832 48.13472595 30.05555664 48.13571167 30.82470703 C48.13639229 32.40836674 48.13454621 33.99202924 48.13037109 35.57568359 C48.12508135 37.96328271 48.13028852 40.35068846 48.13671875 42.73828125 C48.147385 63.12268199 45.73798641 83.11563092 33 100 C32.34 100 31.68 100 31 100 C31 100.66 31 101.32 31 102 C24.70735897 107.98159794 17.64019823 112.91280452 10 117 C9.23816406 117.41378906 8.47632813 117.82757813 7.69140625 118.25390625 C2.43337354 120.86925354 -2.17871781 122.4011109 -8 121 C-15.70283535 117.94312676 -23.33488454 113.93405126 -30 109 C-30 108.34 -30 107.68 -30 107 C-30.57878906 106.75378906 -31.15757813 106.50757812 -31.75390625 106.25390625 C-38.91786905 102.25454615 -43.52577245 94.18505124 -47 87 C-47.36996094 86.24589844 -47.73992188 85.49179688 -48.12109375 84.71484375 C-54.7985864 70.4548503 -55.17463056 54.43048807 -55.25 38.9375 C-55.25918457 37.89150635 -55.26836914 36.8455127 -55.27783203 35.76782227 C-55.21564821 20.21564821 -55.21564821 20.21564821 -52 17 C-49.97332725 16.82367522 -47.94609745 16.6522787 -45.91699219 16.5065918 C-32.74697478 15.50100557 -21.54067507 12.33448726 -11 4 C-10.34 4 -9.68 4 -9 4 C-9 3.34 -9 2.68 -9 2 C-5.48746854 -0.34168764 -4.13530644 -0.49623677 0 0 Z M11.61132812 44.17749023 C11.08990234 44.71575439 10.56847656 45.25401855 10.03125 45.80859375 C9.46019531 46.39060547 8.88914063 46.97261719 8.30078125 47.57226562 C7.70652344 48.18779297 7.11226562 48.80332031 6.5 49.4375 C5.32517467 50.64672911 4.14818791 51.85386315 2.96875 53.05859375 C2.44732422 53.59798584 1.92589844 54.13737793 1.38867188 54.69311523 C0 56 0 56 -2 57 C-2 57.66 -2 58.32 -2 59 C-2.66 59 -3.32 59 -4 59 C-4 59.66 -4 60.32 -4 61 C-6 62 -8 63 -10 64 C-10.45890625 63.44570313 -10.9178125 62.89140625 -11.390625 62.3203125 C-12.00421875 61.59585938 -12.6178125 60.87140625 -13.25 60.125 C-13.85328125 59.40570313 -14.4565625 58.68640625 -15.078125 57.9453125 C-16.9918087 56.0082912 -18.44589499 54.9182113 -21 54 C-21.99 54.495 -21.99 54.495 -23 55 C-23 55.66 -23 56.32 -23 57 C-23.66 57 -24.32 57 -25 57 C-25 57.99 -25 58.98 -25 60 C-24.34 60 -23.68 60 -23 60 C-22.74089844 60.58652344 -22.48179688 61.17304687 -22.21484375 61.77734375 C-20.91475016 64.15597158 -19.51125162 65.68918393 -17.5625 67.5625 C-16.66724609 68.43068359 -16.66724609 68.43068359 -15.75390625 69.31640625 C-15.17511719 69.87199219 -14.59632812 70.42757812 -14 71 C-13.47277344 71.56976563 -12.94554687 72.13953125 -12.40234375 72.7265625 C-11.93957031 73.14679688 -11.47679687 73.56703125 -11 74 C-7.9582904 73.71483972 -6.60954198 72.73969465 -4 71 C-4 70.34 -4 69.68 -4 69 C-3.44570313 68.77441406 -2.89140625 68.54882812 -2.3203125 68.31640625 C0.68506155 66.61133714 2.72987003 64.42200049 5.125 61.9375 C9.80555556 57.09722222 9.80555556 57.09722222 12 56 C12 55.34 12 54.68 12 54 C12.66 54 13.32 54 14 54 C14 53.34 14 52.68 14 52 C15.32 51.34 16.64 50.68 18 50 C18.41188103 46.15328527 18.41188103 46.15328527 16.625 44.25 C14.52727548 42.63636575 13.66635897 42.43497726 11.61132812 44.17749023 Z "
        fill="#000000" transform="translate(55,0)" />
</svg>