<?xml version="1.0" encoding="UTF-8"?>
<svg version="1.1" xmlns="http://www.w3.org/2000/svg" width="92" height="120">
    <path
        d="M0 0 C2.4375 2.1875 2.4375 2.1875 4 5 C3.73130061 9.76771228 2.59085666 12.02361952 -0.81640625 15.3046875 C-1.58017578 16.05234375 -2.34394531 16.8 -3.13085938 17.5703125 C-3.93330078 18.33085937 -4.73574219 19.09140625 -5.5625 19.875 C-6.77196289 21.050625 -6.77196289 21.050625 -8.00585938 22.25 C-9.9930948 24.17844148 -11.99104431 26.09423865 -14 28 C-13.030625 28.639375 -12.06125 29.27875 -11.0625 29.9375 C-8 32 -8 32 -7 33 C-6.85884839 35.67058851 -6.95752893 38.32432238 -7 41 C-6.236875 41.268125 -5.47375 41.53625 -4.6875 41.8125 C-0.54401806 43.64334086 -0.54401806 43.64334086 1 46 C0.9071875 47.7015625 0.9071875 47.7015625 0.8125 49.4375 C0.874375 50.613125 0.93625 51.78875 1 53 C3.83068782 55.44319227 3.83068782 55.44319227 7 57 C8 58 8 58 8.40356445 61.65063477 C8.3224619 66.77063394 6.07152557 69.12209915 2.54296875 72.58984375 C1.97243271 73.17640244 1.40189667 73.76296112 0.81407166 74.36729431 C-1.03780975 76.2494696 -2.92118257 78.09501393 -4.8125 79.9375 C-5.44681946 80.56795227 -6.08113892 81.19840454 -6.73468018 81.84796143 C-16.05520452 91.07406187 -24.69215171 97.75436175 -37.19042969 102.10839844 C-39.35508962 103.17495781 -40.62961761 104.48741718 -42.2578125 106.2578125 C-43.16273437 107.16273437 -44.06765625 108.06765625 -45 109 C-48.82822135 108.59130779 -50.60894587 106.76713507 -53.25 104.0625 C-53.95640625 103.35222656 -54.6628125 102.64195313 -55.390625 101.91015625 C-57 100 -57 100 -57 98 C-57.85609863 97.62959595 -57.85609863 97.62959595 -58.72949219 97.25170898 C-63.24548354 94.76208666 -66.63651921 90.69009595 -70.25 87.0625 C-71.51070312 85.8259668 -71.51070312 85.8259668 -72.796875 84.56445312 C-73.5909375 83.77103516 -74.385 82.97761719 -75.203125 82.16015625 C-76.29608887 81.07166382 -76.29608887 81.07166382 -77.41113281 79.96118164 C-79 78 -79 78 -79 75 C-78.236875 74.2575 -77.47375 73.515 -76.6875 72.75 C-72.61404231 68.58181074 -71.20253243 64.82279186 -70.5625 59.0625 C-71.03058222 49.70085551 -77.47496136 44.02311259 -84 38 C-82.71077652 35.12403993 -81.46976585 32.99117486 -79 31 C-75.10462189 29.55292178 -71.51812008 29.37504057 -67.65625 30.96484375 C-61.80768666 34.58013719 -57.87572929 39.39203158 -54 45 C-48.29899015 40.26476356 -43.06713713 35.18298556 -37.85546875 29.91796875 C-37.00447098 29.06318436 -36.15347321 28.20839996 -35.27668762 27.32771301 C-32.57784863 24.61672525 -29.88228571 21.90251648 -27.1875 19.1875 C-23.62132968 15.59481774 -20.05191949 12.00540094 -16.48046875 8.41796875 C-15.65967331 7.58887497 -14.83887787 6.75978119 -13.99320984 5.90556335 C-13.23514542 5.14419571 -12.47708099 4.38282806 -11.69604492 3.59838867 C-11.02876877 2.9258757 -10.36149261 2.25336273 -9.67399597 1.56047058 C-6.3723856 -1.51723447 -4.26311456 -1.19367208 0 0 Z "
        fill="#000000" transform="translate(84,11)" />
    <path d="M0 0 C2.97 0 5.94 0 9 0 C9 4.95 9 9.9 9 15 C6.03 15 3.06 15 0 15 C0 10.05 0 5.1 0 0 Z " fill="#000000"
        transform="translate(31,0)" />
    <path
        d="M0 0 C0.66 0 1.32 0 2 0 C3.68732277 1.98260426 5.35366057 3.9832342 7 6 C7.66 6.33 8.32 6.66 9 7 C9 7.66 9 8.32 9 9 C9.66 9 10.32 9 11 9 C10.43628586 12.26954202 9.50037734 13.82575883 7 16 C3.54798361 14.52278578 1.35038064 12.56205999 -1.25 9.875 C-1.95640625 9.15054687 -2.6628125 8.42609375 -3.390625 7.6796875 C-4.18726563 6.84824219 -4.18726563 6.84824219 -5 6 C-3.38405168 3.95880212 -1.7143618 1.95927063 0 0 Z "
        fill="#000000" transform="translate(14,4)" />
    <path
        d="M0 0 C0.99 0.33 1.98 0.66 3 1 C3 1.66 3 2.32 3 3 C4.32 3.66 5.64 4.32 7 5 C7 7 7 7 5.390625 8.65625 C4.68421875 9.2646875 3.9778125 9.873125 3.25 10.5 C2.55390625 11.1084375 1.8578125 11.716875 1.140625 12.34375 C-0.84460792 13.87976963 -2.71872045 14.9723966 -5 16 C-7 14.1875 -7 14.1875 -9 12 C-9 9 -9 9 -7.28515625 7.24609375 C-6.55167969 6.64925781 -5.81820312 6.05242188 -5.0625 5.4375 C-2.07351045 3.08714476 -2.07351045 3.08714476 0 0 Z "
        fill="#000000" transform="translate(55,4)" />
</svg>