<?xml version="1.0" encoding="UTF-8"?>
<svg version="1.1" xmlns="http://www.w3.org/2000/svg" width="120" height="120">
    <path
        d="M0 0 C19 0 19 0 24.125 3.4375 C25.8203125 5.37109375 25.8203125 5.37109375 27 7 C28.73128845 8.73128845 31.10248605 8.17044747 33.4609375 8.2109375 C35.12769531 8.25347656 35.12769531 8.25347656 36.828125 8.296875 C39.18474 8.34878282 41.54153478 8.39310586 43.8984375 8.4296875 C45.0121875 8.460625 46.1259375 8.4915625 47.2734375 8.5234375 C48.29872559 8.54325684 49.32401367 8.56307617 50.38037109 8.58349609 C53 9 53 9 54.83447266 10.31103516 C56.79459955 13.15145364 56.35624891 15.67501015 56 19 C54.16884793 21.61593153 53.09031634 21.96989455 50 23 C48.51876453 23.0806622 47.03417796 23.10761193 45.55078125 23.09765625 C44.70322266 23.09443359 43.85566406 23.09121094 42.98242188 23.08789062 C42.10134766 23.07951172 41.22027344 23.07113281 40.3125 23.0625 C39.41982422 23.05798828 38.52714844 23.05347656 37.60742188 23.04882812 C35.40488013 23.03704983 33.20247401 23.02060164 31 23 C31 23.99 31 24.98 31 26 C34.20932655 25.91852902 37.41683439 25.80574254 40.625 25.6875 C41.52863281 25.66494141 42.43226562 25.64238281 43.36328125 25.61914062 C48.54024361 25.41130637 52.6658526 25.12725404 57 22 C57.39832031 21.07445313 57.79664063 20.14890625 58.20703125 19.1953125 C61.0288541 14.16644301 65.66386889 12.43760895 70.6875 9.875 C71.65623047 9.36324219 72.62496094 8.85148437 73.62304688 8.32421875 C76.40470295 6.86098114 79.19957848 5.42692057 82 4 C82.78568359 3.59104492 83.57136719 3.18208984 84.38085938 2.76074219 C91.32482056 -0.81307468 91.32482056 -0.81307468 96 0 C101.57894737 3.15789474 101.57894737 3.15789474 103 6 C103.23828125 7.98828125 103.23828125 7.98828125 103.3125 10.3125 C103.36857422 11.45138672 103.36857422 11.45138672 103.42578125 12.61328125 C102.66987674 16.85050744 100.28704168 19.05117641 96.88549805 21.55883789 C94.18192852 23.38014829 91.44376789 25.13447548 88.6875 26.875 C86.62082688 28.19880222 84.55442898 29.52303417 82.48828125 30.84765625 C80.89040771 31.86690186 80.89040771 31.86690186 79.26025391 32.90673828 C76.00529523 34.99660017 72.77128211 37.11533815 69.54296875 39.24609375 C68.50889893 39.92752441 67.4748291 40.60895508 66.40942383 41.31103516 C64.42190772 42.62197385 62.4360036 43.93536055 60.4519043 45.25146484 C59.54738525 45.84523926 58.64286621 46.43901367 57.7109375 47.05078125 C56.91993652 47.57325439 56.12893555 48.09572754 55.31396484 48.6340332 C47.28563486 53.3732721 38.06176 53.44659179 29.15185547 51.3203125 C25.11740332 50.17493002 21.13058496 48.92448508 17.15869141 47.57836914 C15.767229 47.10838501 15.767229 47.10838501 14.34765625 46.62890625 C13.53304932 46.34088135 12.71844238 46.05285645 11.87915039 45.75610352 C8.00767388 44.73940185 3.97826875 44.44202986 0 44 C0 29.48 0 14.96 0 0 Z "
        fill="#000000" transform="translate(17,68)" />
    <path
        d="M0 0 C10.00568176 5.93698129 15.6354881 13.39155915 18.98828125 24.5390625 C20.86139597 34.03707856 18.70807482 43.13610784 13.625 51.25 C7.84021517 59.26404337 0.95928296 63.82952682 -8.625 66.5 C-19.21817981 67.98089549 -28.05727536 65.87108701 -36.9375 59.9609375 C-44.40082791 53.99592921 -49.08676925 45.88320758 -50.625 36.5 C-51.23963415 30.25121951 -51.23963415 30.25121951 -48.9375 27.4375 C-46.625 26.5 -46.625 26.5 -43.9375 27.25 C-41.625 28.5 -41.625 28.5 -40.625 29.5 C-40.30201029 31.22359057 -40.01664634 32.95429876 -39.75 34.6875 C-38.17140081 43.42617411 -34.85612767 48.36139645 -27.625 53.5 C-21.20586416 56.74720105 -13.0689091 56.62162562 -6.1796875 54.8828125 C0.11964492 52.09134363 4.71931063 46.73939224 7.8125 40.6875 C9.5078847 31.08032006 8.64417974 23.35706704 3.1875 15.25 C-2.58562149 9.6051701 -9.3449063 7.20504638 -17.38671875 7.265625 C-21.33190164 7.67873316 -24.94627662 9.06938535 -28.625 10.5 C-28.2846875 11.8921875 -28.2846875 11.8921875 -27.9375 13.3125 C-27.625 16.5 -27.625 16.5 -28.69921875 18.171875 C-31.50380122 20.10606981 -33.75112067 19.93370059 -37.125 19.9375 C-38.2696875 19.95683594 -39.414375 19.97617187 -40.59375 19.99609375 C-43.625 19.5 -43.625 19.5 -45.5078125 17.8203125 C-46.85508365 15.02213397 -47.02529763 13.03645928 -47 9.9375 C-47.00773437 8.98746094 -47.01546875 8.03742187 -47.0234375 7.05859375 C-46.625 4.5 -46.625 4.5 -45.26171875 2.6796875 C-42.95861811 1.01969611 -41.39483703 1.14489269 -38.625 1.5 C-37.965 2.16 -37.305 2.82 -36.625 3.5 C-35.96757813 3.066875 -35.31015625 2.63375 -34.6328125 2.1875 C-23.89301228 -4.09921232 -11.49894539 -5.29824825 0 0 Z "
        fill="#000000" transform="translate(75.625,2.5)" />
    <path
        d="M0 0 C3.38815178 2.63522916 4.94938851 4.77455305 5.60546875 9.0859375 C5.85966459 13.66146263 5.76030502 16.77460678 2.75 20.375 C1.925 21.15875 1.1 21.9425 0.25 22.75 C2.10625 23.3996875 2.10625 23.3996875 4 24.0625 C7.16596559 25.24131697 9.68121425 26.50231247 12.25 28.75 C10.12501124 33.96588151 5.8652333 37.6731778 1.25 40.75 C-4.63305889 42.71101963 -11.37954327 42.61198427 -17.1875 40.5 C-21.33490604 37.66762514 -25.02879099 35.04664581 -27.75 30.75 C-27.75 30.09 -27.75 29.43 -27.75 28.75 C-23.9884416 25.10242821 -20.71466917 23.91815745 -15.75 22.75 C-16.575 21.96625 -17.4 21.1825 -18.25 20.375 C-21.22934894 16.79299074 -21.4244259 13.70870326 -21.1640625 9.15234375 C-20.52994351 5.47325713 -19.31421079 3.44570878 -16.75 0.75 C-10.76464209 -2.75086972 -6.28434004 -2.8565182 0 0 Z "
        fill="#000000" transform="translate(67.75,14.25)" />
    <path
        d="M0 0 C3.63 0 7.26 0 11 0 C13.47565035 2.47565035 13.25234962 3.19305733 13.25878906 6.6015625 C13.26509338 7.55595215 13.27139771 8.5103418 13.27789307 9.49365234 C13.2738446 10.52699707 13.26979614 11.5603418 13.265625 12.625 C13.26753845 13.68283691 13.2694519 14.74067383 13.27142334 15.83056641 C13.27278602 18.06998939 13.26908382 20.30942026 13.26074219 22.54882812 C13.25004402 25.98585677 13.26063488 29.4223627 13.2734375 32.859375 C13.27211592 35.03125116 13.26955356 37.20312699 13.265625 39.375 C13.26967346 40.40834473 13.27372192 41.44168945 13.27789307 42.50634766 C13.27158875 43.4607373 13.26528442 44.41512695 13.25878906 45.3984375 C13.25640228 46.66179932 13.25640228 46.66179932 13.25396729 47.95068359 C13 50 13 50 11 52 C7.37 52 3.74 52 0 52 C0 34.84 0 17.68 0 0 Z "
        fill="#000000" transform="translate(0,64)" />
</svg>