<?xml version="1.0" encoding="UTF-8"?>
<svg version="1.1" xmlns="http://www.w3.org/2000/svg" width="384" height="384">
<path d="M0 0 C0.78448666 -0.00367669 1.56897333 -0.00735338 2.37723231 -0.01114148 C5.00302077 -0.02214425 7.62876961 -0.02601646 10.25457764 -0.02983093 C12.13903935 -0.03609849 14.02349984 -0.04274555 15.90795898 -0.04974365 C22.09738305 -0.07076349 28.28680729 -0.08114872 34.47625732 -0.09111023 C36.61212934 -0.0951595 38.74800123 -0.09927648 40.88387299 -0.10346031 C50.9266903 -0.12251272 60.96950029 -0.13673987 71.0123322 -0.14507228 C82.57416235 -0.15482492 94.13580004 -0.18109258 105.69756246 -0.22157317 C114.65157196 -0.25183786 123.60552666 -0.2665512 132.55958629 -0.26985329 C137.89832401 -0.27219328 143.23685617 -0.28101502 148.57553864 -0.30631447 C153.60875444 -0.32977987 158.64163206 -0.333755 163.67488861 -0.32355309 C165.50930412 -0.32306196 167.34373733 -0.32925534 169.17810059 -0.34310913 C198.05960839 -0.54879517 222.86434502 9.63379016 244.14813232 29.14717102 C244.66407959 29.61783997 245.18002686 30.08850891 245.71160889 30.57344055 C263.65488478 47.15530599 277.18561789 68.73553055 281.14813232 93.14717102 C281.24629772 95.82602604 281.29596629 98.47896181 281.29530334 101.15762329 C281.29898003 101.95914973 281.30265672 102.76067617 281.30644482 103.58649129 C281.31744957 106.26989172 281.32132013 108.95325338 281.32513428 111.63667297 C281.33140162 113.56216555 281.33804867 115.48765692 281.345047 117.41314697 C281.36606719 123.73724021 281.37645127 130.06133362 281.38641357 136.38545227 C281.39046266 138.56716105 281.39457963 140.74886971 281.39876366 142.93057823 C281.41781519 153.18750186 281.4320432 163.44441832 281.44037563 173.70135623 C281.4501316 185.51392675 281.47640845 197.32630906 281.51687652 209.13881332 C281.5471257 218.28473764 281.56185304 227.43060831 281.56515664 236.57658166 C281.56749815 242.03098068 281.57634022 247.48517866 281.60161781 252.9395237 C281.62505624 258.08025599 281.6290689 263.22065714 281.61885643 268.36142921 C281.61836468 270.23657845 281.62457705 272.11174486 281.63841248 273.98684311 C281.83710327 302.53955341 271.5619519 327.31724998 251.58953857 347.67060852 C250.13032657 349.16541106 248.70105505 350.68500556 247.27313232 352.20967102 C231.20462431 369.12813694 208.3053482 383.42903466 184.38070965 384.2813921 C182.94120305 384.29072346 181.50165533 384.29470193 180.06211853 384.29434204 C178.86573091 384.29985707 178.86573091 384.29985707 177.64517385 384.30548352 C174.98103294 384.3164682 172.31693111 384.32035538 169.652771 384.32417297 C167.73860553 384.33044182 165.82444127 384.33708899 163.91027832 384.34408569 C157.62889446 384.36508737 151.34751047 384.37548795 145.06610107 384.38545227 C142.89772339 384.38950199 140.72934583 384.39361898 138.5609684 384.39780235 C128.36651666 384.41684949 118.17207211 384.43107867 107.977606 384.43941432 C96.24259566 384.44916986 84.50777479 384.47544743 72.77283114 384.51591522 C63.68292152 384.54617619 54.59306587 384.56089283 45.50310689 384.56419533 C40.08390179 384.56653541 34.66489919 384.57535858 29.24574852 384.60065651 C24.1378303 384.62411593 19.03024533 384.62809937 13.92228699 384.61789513 C12.06045733 384.61740389 10.19861025 384.62360074 8.33683205 384.63745117 C-23.76087915 384.86262906 -48.56659994 372.27361241 -71.41436768 349.95967102 C-77.77791365 343.59612505 -82.91810045 336.65117036 -87.85186768 329.14717102 C-88.71231689 327.88840149 -88.71231689 327.88840149 -89.59014893 326.60420227 C-100.72668301 309.42458768 -103.31108581 289.98839424 -103.25592041 270.00312805 C-103.26163537 268.11571349 -103.26860394 266.22830238 -103.27671814 264.34089661 C-103.29454066 259.25398615 -103.2935018 254.16724922 -103.28777575 249.08031702 C-103.28466793 244.81628699 -103.29079399 240.55228953 -103.2968145 236.28826416 C-103.31082241 226.22020902 -103.30932971 216.1522388 -103.2979126 206.08418274 C-103.28643591 195.73560887 -103.30050816 185.3872943 -103.32730907 175.03875458 C-103.34953864 166.11768315 -103.35608713 157.19669268 -103.35023266 148.27559555 C-103.34687911 142.96331622 -103.34917079 137.65120303 -103.36648369 132.3389473 C-103.38206689 127.34005522 -103.37787243 122.34154426 -103.35917854 117.34266663 C-103.35552388 115.52073611 -103.35850852 113.69877662 -103.36906433 111.87687302 C-103.54103179 79.71045545 -90.28106177 54.60119725 -68.10186768 32.02217102 C-50.18817628 14.17075626 -25.99407236 -0.0065767 0 0 Z M-56.85186768 65.14717102 C-69.29397735 80.83003609 -72.15531231 98.51068176 -72.14239502 117.82148743 C-72.14838651 119.61126484 -72.15519348 121.40103967 -72.16275024 123.19081116 C-72.18035713 128.03412004 -72.18510346 132.87735817 -72.18638182 137.72069597 C-72.18780732 140.75329725 -72.19208454 143.78588078 -72.19737625 146.81847763 C-72.21586103 157.4174742 -72.22404907 168.01642059 -72.22247314 178.61543274 C-72.22127312 188.46347528 -72.24235221 198.31129818 -72.27396047 208.15928519 C-72.3001994 216.63947146 -72.31083721 225.11958636 -72.30956233 233.59981287 C-72.3090548 238.65337315 -72.31462087 243.70673821 -72.33591843 248.76025772 C-72.35542886 253.51940359 -72.35533864 258.2781706 -72.34088516 263.03733063 C-72.33881154 264.77260524 -72.34341038 266.50790437 -72.35560608 268.24313736 C-72.44671232 282.11750328 -70.74647314 294.9116498 -64.16436768 307.39717102 C-63.82333008 308.05918518 -63.48229248 308.72119934 -63.13092041 309.40327454 C-59.7972105 315.64178274 -55.66248901 320.96523243 -50.85186768 326.14717102 C-50.13128174 326.93607727 -49.4106958 327.72498352 -48.66827393 328.53779602 C-33.90813522 344.00831573 -14.73404249 353.4984932 6.77121639 354.27859879 C8.01014928 354.28157345 9.24908216 354.28454811 10.52555847 354.28761292 C11.22277026 354.29058404 11.91998204 354.29355516 12.63832146 354.29661632 C14.9507677 354.30521679 17.26316165 354.30680417 19.57562256 354.30830383 C21.2437806 354.3129383 22.9119376 354.3179638 24.58009338 354.323349 C29.09714559 354.33641807 33.61418296 354.34290768 38.1312511 354.34735966 C40.96100291 354.35030047 43.79075076 354.35440722 46.62050056 354.35886383 C55.49612579 354.37252692 64.37174185 354.38219828 73.24737686 354.38606572 C83.45134647 354.39053777 93.65518155 354.40805099 103.8591103 354.43706632 C111.77285035 354.45877848 119.68655282 354.46877513 127.60032231 354.47010684 C132.31411589 354.47114846 137.02778282 354.47691719 141.74154472 354.49492645 C146.18462974 354.51157199 150.62749516 354.51348396 155.07060051 354.50478745 C156.68731785 354.50402568 158.30404782 354.50824372 159.92073441 354.5182457 C186.33168666 354.67185335 207.90936682 347.72761531 227.02313232 328.89717102 C233.61829991 322.20259716 238.94388113 315.61027408 243.14813232 307.14717102 C243.87709717 305.72597961 243.87709717 305.72597961 244.62078857 304.27607727 C250.99676955 290.57608317 251.59840862 275.53073998 251.53631592 260.68208313 C251.540395 259.0109727 251.54574427 257.33986497 251.55224609 255.66876221 C251.56576586 251.1852975 251.56068574 246.70204299 251.55110884 242.21857524 C251.54343295 237.49356123 251.55057947 232.76856342 251.55526733 228.04354858 C251.56070153 220.1147595 251.55359447 212.18605468 251.53924561 204.25727844 C251.52291799 195.13051922 251.52821791 186.00396111 251.54472482 176.87720674 C251.55839994 168.99640701 251.56023024 161.11566731 251.55240881 153.23485953 C251.54776596 148.54751996 251.54701303 143.86027448 251.55701828 139.17294121 C251.56577428 134.76418469 251.559511 130.35568401 251.54233551 125.94695473 C251.53841648 124.34272051 251.53942445 122.73846422 251.5461235 121.1342392 C251.64963495 93.79646605 243.4257017 72.70251517 224.14813232 53.14717102 C223.05371826 52.03342102 223.05371826 52.03342102 221.93719482 50.89717102 C213.14264303 42.52763474 201.80779321 36.44122906 190.14813232 33.14717102 C188.97006012 32.80688873 187.79198792 32.46660645 186.57821655 32.11601257 C179.00767798 30.46507314 171.18290564 30.85148695 163.47381592 30.85664368 C161.68403851 30.85065218 159.89426367 30.84384521 158.10449219 30.83628845 C153.2611833 30.81868157 148.41794517 30.81393524 143.57460737 30.81265688 C140.54200609 30.81123138 137.50942257 30.80695416 134.47682571 30.80166245 C123.87782915 30.78317766 113.27888276 30.77498963 102.67987061 30.77656555 C92.83182806 30.77776558 82.98400517 30.75668648 73.13601816 30.72507823 C64.65583188 30.6988393 56.17571699 30.68820148 47.69549048 30.68947637 C42.64193019 30.68998389 37.58856513 30.68441782 32.53504562 30.66312027 C27.77589976 30.64360983 23.01713275 30.64370006 18.25797272 30.65815353 C16.52269811 30.66022715 14.78739898 30.65562831 13.05216599 30.64343262 C-16.47556039 30.44953835 -37.55750934 43.32075853 -56.85186768 65.14717102 Z " fill="#DA812F" transform="translate(102.85186767578125,-0.1471710205078125)"/>
<path d="M0 0 C2.170411 1.91250375 4.21152795 3.93762251 6.24902344 5.99023438 C6.84165482 6.57936111 7.43428619 7.16848785 8.0448761 7.77546692 C9.98807881 9.70991923 11.92393542 11.65153294 13.859375 13.59375 C15.21335128 14.94637807 16.56762426 16.29870922 17.92218018 17.65075684 C20.75297809 20.47861286 23.58014361 23.31003796 26.40478516 26.14404297 C30.02510796 29.77578153 33.65436487 33.39843828 37.28637314 37.01848602 C40.08150102 39.80638873 42.8718502 42.59903509 45.66077423 45.3931427 C46.99734968 46.73105168 48.33541069 48.0674783 49.67498016 49.40238953 C51.5443874 51.26671846 53.40726496 53.13733706 55.26855469 55.00976562 C55.82233292 55.55949539 56.37611115 56.10922516 56.94667053 56.6756134 C61.2863769 61.06356027 63.28809882 64.06954899 63.5 70.25 C63.5515625 71.14203125 63.603125 72.0340625 63.65625 72.953125 C61.5818062 82.58447123 50.9755395 90.35221264 44.2265625 97.109375 C42.97620575 98.36617029 41.72599466 99.6231105 40.47592163 100.88018799 C37.86541249 103.50261691 35.25085945 106.12093613 32.63378906 108.73681641 C29.29268274 112.07771906 25.96557788 115.43220021 22.64180946 118.79034042 C20.0680613 121.3863893 17.48520936 123.97323277 14.8997612 126.55762482 C13.66943553 127.79029879 12.44232398 129.02619 11.21861649 130.26543427 C9.50363601 132.00015249 7.77626943 133.72157357 6.04541016 135.44042969 C5.30320473 136.19949364 5.30320473 136.19949364 4.54600525 136.97389221 C-0.07216893 141.51167815 -5.13273877 144.65395123 -11.625 145.4375 C-16.90985436 144.75242629 -20.340734 142.99899694 -23.8125 139 C-27.04393706 134.56831489 -27.44368768 131.41298966 -27 126 C-24.73092586 119.55290434 -20.65810626 115.1158091 -15.828125 110.4375 C-15.1457074 109.76074219 -14.46328979 109.08398438 -13.76019287 108.38671875 C-11.59941357 106.24815428 -9.42508777 104.12399996 -7.25 102 C-5.77381817 100.54390228 -4.2985481 99.08687961 -2.82421875 97.62890625 C0.7734008 94.07515634 4.3832298 90.5342535 8 87 C7.43531006 86.99853344 6.87062012 86.99706688 6.28881836 86.99555588 C-7.47537353 86.95844309 -21.23931701 86.89911846 -35.00331116 86.81609726 C-41.65962093 86.776615 -48.3157456 86.74443003 -54.97216797 86.72900391 C-61.3978805 86.71384261 -67.82322892 86.67940533 -74.2487793 86.63169098 C-76.69829135 86.61687195 -79.14785538 86.60895869 -81.59741211 86.60811615 C-85.03278264 86.60574645 -88.467147 86.57866415 -91.90234375 86.54589844 C-92.91151352 86.5509288 -93.92068329 86.55595917 -94.96043396 86.56114197 C-101.10291498 86.47070595 -105.90215296 85.5871354 -111 82 C-114.24636168 78.33743811 -115.77576152 74.91196396 -116.1640625 70.0859375 C-115.75374967 64.86910294 -113.11880863 61.03889372 -109.375 57.5625 C-106.06700408 55.38618689 -104.35204842 54.87193883 -100.43161011 54.84178162 C-98.98866577 54.82709839 -98.98866577 54.82709839 -97.51657104 54.81211853 C-96.4577774 54.80636307 -95.39898376 54.8006076 -94.30810547 54.79467773 C-93.19590637 54.78477814 -92.08370728 54.77487854 -90.93780518 54.76467896 C-87.24762122 54.73299545 -83.55742437 54.70827944 -79.8671875 54.68359375 C-77.3141343 54.66303014 -74.76108455 54.64203383 -72.20803833 54.62062073 C-66.16616293 54.57099457 -60.12426996 54.52574516 -54.08234608 54.48259836 C-47.20452723 54.43323933 -40.32675636 54.37831626 -33.44898391 54.32291877 C-19.29936738 54.20907474 -5.14970478 54.10224098 9 54 C8.59323532 53.59989716 8.18647064 53.19979431 7.76737976 52.78756714 C3.52434044 48.61104567 -0.70798445 44.42388478 -4.93432617 40.23046875 C-6.51169561 38.66815889 -8.09175068 37.10855561 -9.67456055 35.55175781 C-11.95297178 33.3098527 -14.22145596 31.0582994 -16.48828125 28.8046875 C-17.54780754 27.76838699 -17.54780754 27.76838699 -18.6287384 26.71115112 C-23.1872025 22.15425096 -26.58044009 18.236605 -27.4375 11.625 C-26.7050763 5.55634646 -24.76971048 1.43788976 -20 -2.4375 C-12.43643749 -6.37685547 -6.8292845 -5.01535255 0 0 Z " fill="#D87E2E" transform="translate(218,122)"/>
</svg>
