<?xml version="1.0" encoding="UTF-8"?>
<svg version="1.1" xmlns="http://www.w3.org/2000/svg" width="198" height="167">
    <path
        d="M0 0 C0.74182526 -0.00428513 1.48365051 -0.00857025 2.24795532 -0.01298523 C3.80591824 -0.01868692 5.36390777 -0.0192598 6.921875 -0.01489258 C9.27651429 -0.01173557 11.62989065 -0.03523248 13.984375 -0.06054688 C27.11083768 -0.1164326 37.47116113 1.74393957 47.5390625 10.61328125 C55.35023753 19.45224247 59.42900932 26.88058747 59.20703125 38.83203125 C59.20278641 39.70855347 59.19854156 40.58507568 59.19416809 41.48815918 C59.1775138 44.25935948 59.13988759 47.02980461 59.1015625 49.80078125 C59.08649849 51.69139567 59.0728131 53.58202161 59.06054688 55.47265625 C59.02765389 60.08231764 58.97596505 64.69142187 58.9140625 69.30078125 C43.44363341 75.90114982 28.94295696 77.86353124 12.2890625 77.73828125 C11.4563382 77.73590454 10.62361389 77.73352783 9.76565552 77.7310791 C-8.23893999 77.65075639 -23.93434727 74.69738236 -41.0859375 69.30078125 C-41.16088344 64.51769316 -41.2149096 59.73495741 -41.25073242 54.95141602 C-41.26568816 53.3289595 -41.28606027 51.70654248 -41.31225586 50.08422852 C-41.54025575 35.58611755 -40.56600362 22.4655732 -30.19921875 11.26171875 C-21.52961366 3.25638595 -11.74237882 -0.01544488 0 0 Z "
        fill="#E99A40" transform="translate(91.0859375,89.69921875)" />
    <path
        d="M0 0 C1.08809212 0.00212242 1.08809212 0.00212242 2.19816589 0.00428772 C4.50064325 0.00985694 6.8030211 0.02240364 9.10546875 0.03515625 C10.67252463 0.04017523 12.23958205 0.04473744 13.80664062 0.04882812 C17.63545464 0.05981627 21.46419486 0.07705952 25.29296875 0.09765625 C25.47400146 0.96938477 25.65503418 1.84111328 25.84155273 2.73925781 C26.09235596 3.89393555 26.34315918 5.04861328 26.6015625 6.23828125 C26.84447021 7.37813477 27.08737793 8.51798828 27.33764648 9.69238281 C28.74077208 14.69386396 31.13672095 18.9831048 34.29296875 23.09765625 C34.95296875 23.42765625 35.61296875 23.75765625 36.29296875 24.09765625 C36.29296875 25.08765625 36.29296875 26.07765625 36.29296875 27.09765625 C35.349375 27.42636719 35.349375 27.42636719 34.38671875 27.76171875 C22.89644385 32.01865794 14.69212491 38.58754073 9.48046875 49.78515625 C7.43420973 54.46704987 6.21809264 58.53789396 5.9765625 63.64453125 C5.9137207 64.91103516 5.9137207 64.91103516 5.84960938 66.203125 C5.81029297 67.07582031 5.77097656 67.94851562 5.73046875 68.84765625 C5.68728516 69.73582031 5.64410156 70.62398438 5.59960938 71.5390625 C5.4938326 73.72511588 5.39174329 75.91127714 5.29296875 78.09765625 C-4.81435251 77.26161857 -14.62564801 75.86159495 -24.51953125 73.59765625 C-25.45555176 73.38407471 -26.39157227 73.17049316 -27.35595703 72.95043945 C-31.64174464 71.93768327 -35.63559119 70.80095412 -39.70703125 69.09765625 C-39.80664895 63.58419944 -39.87885035 58.07127797 -39.92675781 52.55712891 C-39.94674988 50.68529116 -39.97395293 48.81351487 -40.00878906 46.94189453 C-40.37249304 26.88469003 -40.37249304 26.88469003 -35.70703125 19.09765625 C-35.17722656 18.1953125 -34.64742187 17.29296875 -34.1015625 16.36328125 C-25.3216008 5.17695968 -14.13556561 -0.10482 0 0 Z "
        fill="#E99A40" transform="translate(39.70703125,59.90234375)" />
    <path
        d="M0 0 C4.08926849 -0.0750148 8.17826207 -0.12900317 12.26806641 -0.16479492 C13.65485627 -0.17973947 15.04160007 -0.20010278 16.42822266 -0.22631836 C29.83874943 -0.47322698 40.35149897 1.26203481 50.625 10.3125 C58.65838979 19.40291476 62.52945163 27.09066689 62.29296875 39.41015625 C62.28872391 40.26306747 62.28447906 41.1159787 62.28010559 41.99473572 C62.2634863 44.6843295 62.22586775 47.37313769 62.1875 50.0625 C62.17243143 51.9003797 62.15874686 53.73827131 62.14648438 55.57617188 C62.11363805 60.05107796 62.06197498 64.5254064 62 69 C48.02607108 74.58587231 35.04630247 77.32766907 20 78 C19.97421875 76.83984375 19.9484375 75.6796875 19.921875 74.484375 C19.44468853 59.56028822 17.08802659 46.80085847 5.8984375 35.96484375 C0.74451875 31.67598203 -4.6706177 29.12741242 -11 27 C-11 26.01 -11 25.02 -11 24 C-10.34 24 -9.68 24 -9 24 C-8.70996094 23.4121875 -8.41992188 22.824375 -8.12109375 22.21875 C-7.45125189 20.89306995 -6.7622229 19.57642945 -6.03515625 18.28125 C-3.8038771 14.19505203 -2.45791634 10.25182201 -1.37109375 5.71875 C-0.98135376 4.1090332 -0.98135376 4.1090332 -0.58374023 2.46679688 C-0.39110596 1.65275391 -0.19847168 0.83871094 0 0 Z "
        fill="#E99A40" transform="translate(136,60)" />
    <path
        d="M0 0 C5.89815987 4.74945457 10.33692421 10.95049272 11.7734375 18.4921875 C12.62630406 27.2445558 11.31844746 34.52230671 6.16015625 41.75390625 C0.62191725 48.39733706 -5.51479317 52.86882181 -14.3046875 53.828125 C-24.07012933 53.94838906 -31.3288907 52.54608672 -38.6015625 45.7421875 C-45.46443194 38.32474275 -47.61064714 30.81696314 -47.5 20.84765625 C-46.82121252 12.51796411 -42.36157617 5.9921314 -36.2265625 0.4921875 C-24.67049705 -7.37452597 -11.79679648 -7.98870779 0 0 Z "
        fill="#E99A40" transform="translate(118.2265625,35.5078125)" />
    <path
        d="M0 0 C7.11219955 4.81633163 12.25798788 11.47597955 14 20 C14.67185913 25.12292584 14.67185913 25.12292584 14 28 C12.43072269 29.97884145 10.69854807 31.54574657 8.8125 33.22265625 C5.47858044 36.49190927 3.63939535 40.67531093 2.41015625 45.14453125 C1.53111674 48.24127829 0.82486991 50.33712486 -1.73046875 52.390625 C-8.89949148 56.09919049 -17.01730492 56.12286086 -24.7734375 54.375 C-32.77852171 51.61632483 -38.58295119 46.18936381 -42.4375 38.6875 C-45.78957561 31.2768575 -46.46765788 23.54378214 -43.94140625 15.72265625 C-39.94074786 7.12503536 -34.82376957 1.51793884 -26.1875 -2.4375 C-17.03540057 -5.67507269 -8.42568073 -4.73069782 0 0 Z "
        fill="#E99A40" transform="translate(65,4)" />
    <path
        d="M0 0 C6.32852953 5.09600692 10.51956066 11.40468185 11.7734375 19.4921875 C12.63109528 27.85786582 11.07436373 34.85650417 6.16015625 41.7578125 C0.60151444 48.41339249 -5.56701676 52.95748195 -14.41015625 53.79296875 C-26.8296076 53.83769667 -26.8296076 53.83769667 -31.2265625 50.4921875 C-32.22163763 47.82824198 -32.82813978 45.18790569 -33.43359375 42.41015625 C-35.15833558 36.06344617 -38.94716347 31.32167582 -44.1015625 27.3671875 C-46.81847107 25.16835906 -47.16244507 24.80111691 -47.9140625 21.1796875 C-46.35671435 12.82663835 -42.56963436 6.17865232 -36.2265625 0.4921875 C-24.67049705 -7.37452597 -11.79679648 -7.98870779 0 0 Z "
        fill="#E99A40" transform="translate(166.2265625,5.5078125)" />
</svg>