<?xml version="1.0" encoding="UTF-8"?>
<svg version="1.1" xmlns="http://www.w3.org/2000/svg" width="83" height="83">
<path d="M0 0 C1.22948837 1.03794703 2.4385712 2.10059503 3.625 3.1875 C4.54732422 3.97447266 4.54732422 3.97447266 5.48828125 4.77734375 C12.87549077 11.50017897 17.02121334 20.81965699 17.9609375 30.73046875 C18.10787721 44.43994412 15.02916959 54.94453656 5.625 65.1875 C-5.68271631 74.8671883 -16.80192332 76.98458263 -31.375 76.1875 C-42.64590055 74.48357745 -52.00483663 67.82790883 -58.71875 58.81640625 C-61.23815687 54.81744205 -62.97607497 50.69251282 -64.375 46.1875 C-64.56578125 45.57648437 -64.7565625 44.96546875 -64.953125 44.3359375 C-67.05447147 33.63463601 -65.61775349 22.30358798 -60.01953125 12.9140625 C-58.57122085 10.88720451 -57.03915864 9.04012962 -55.375 7.1875 C-54.58802734 6.26324219 -54.58802734 6.26324219 -53.78515625 5.3203125 C-40.49624171 -9.25059145 -16.01909457 -11.51275968 0 0 Z " fill="#FBB909" transform="translate(65.375,6.8125)"/>
<path d="M0 0 C0.80566406 0.46019531 1.61132812 0.92039062 2.44140625 1.39453125 C3.32441406 1.89210938 4.20742188 2.3896875 5.1171875 2.90234375 C5.98730469 3.43601562 6.85742188 3.9696875 7.75390625 4.51953125 C8.63691406 5.05835938 9.51992188 5.5971875 10.4296875 6.15234375 C11.09355469 6.56226563 11.75742187 6.9721875 12.44140625 7.39453125 C12.11140625 8.05453125 11.78140625 8.71453125 11.44140625 9.39453125 C10.78140625 9.39453125 10.12140625 9.39453125 9.44140625 9.39453125 C9.44140625 10.05453125 9.44140625 10.71453125 9.44140625 11.39453125 C10.0446875 11.28753906 10.64796875 11.18054687 11.26953125 11.0703125 C17.73298292 10.10079475 17.73298292 10.10079475 21.00390625 11.45703125 C22.44140625 13.39453125 22.44140625 13.39453125 22.94140625 16.39453125 C22.44140625 19.39453125 22.44140625 19.39453125 20.56640625 21.26953125 C18.44140625 22.39453125 18.44140625 22.39453125 16.44140625 22.39453125 C16.31765625 21.42515625 16.19390625 20.45578125 16.06640625 19.45703125 C15.86015625 18.44640625 15.65390625 17.43578125 15.44140625 16.39453125 C14.78140625 16.06453125 14.12140625 15.73453125 13.44140625 15.39453125 C13.53421875 16.05839844 13.62703125 16.72226562 13.72265625 17.40625 C13.95509628 20.24948961 14.02965646 22.5960174 13.44140625 25.39453125 C11.48362192 27.03889835 9.5146322 27.98382071 7.22265625 29.1015625 C5.24362552 30.24879254 5.24362552 30.24879254 4.91015625 32.46875 C4.89993566 34.95747798 4.89993566 34.95747798 5.44140625 38.39453125 C6.10140625 38.39453125 6.76140625 38.39453125 7.44140625 38.39453125 C7.44140625 36.41453125 7.44140625 34.43453125 7.44140625 32.39453125 C9.42140625 31.73453125 11.40140625 31.07453125 13.44140625 30.39453125 C13.44140625 32.37453125 13.44140625 34.35453125 13.44140625 36.39453125 C11.46140625 36.88953125 11.46140625 36.88953125 9.44140625 37.39453125 C9.44140625 38.38453125 9.44140625 39.37453125 9.44140625 40.39453125 C12.73216621 40.01548917 12.73216621 40.01548917 15.44140625 38.39453125 C15.64497597 35.61693554 15.76071634 32.84152964 15.8671875 30.05859375 C16.44140625 27.39453125 16.44140625 27.39453125 18.359375 25.54296875 C20.44140625 24.39453125 20.44140625 24.39453125 22.44140625 24.39453125 C24.00180402 36.13085638 24.00180402 36.13085638 22.44140625 41.39453125 C19.21348935 45.52226008 14.22754213 47.5797368 9.44140625 49.39453125 C8.78140625 49.39453125 8.12140625 49.39453125 7.44140625 49.39453125 C6.78140625 48.73453125 6.12140625 48.07453125 5.44140625 47.39453125 C5.34859375 48.53921875 5.34859375 48.53921875 5.25390625 49.70703125 C4.44140625 52.39453125 4.44140625 52.39453125 2.19140625 54.33203125 C-0.55859375 55.39453125 -0.55859375 55.39453125 -3.18359375 54.64453125 C-4.35921875 54.02578125 -4.35921875 54.02578125 -5.55859375 53.39453125 C-7.04359375 52.89953125 -7.04359375 52.89953125 -8.55859375 52.39453125 C-8.88859375 51.40453125 -9.21859375 50.41453125 -9.55859375 49.39453125 C-10.26371094 49.28109375 -10.96882813 49.16765625 -11.6953125 49.05078125 C-17.25397327 47.7767635 -21.8032216 45.77579875 -25.55859375 41.39453125 C-26.94487347 35.85076879 -26.18346004 30.00570432 -25.55859375 24.39453125 C-20.68359375 26.26953125 -20.68359375 26.26953125 -19.55859375 27.39453125 C-19.32495494 29.24345071 -19.1455574 31.09941156 -18.99609375 32.95703125 C-18.91230469 33.96894531 -18.82851563 34.98085938 -18.7421875 36.0234375 C-18.68160156 36.80589844 -18.62101562 37.58835938 -18.55859375 38.39453125 C-17.07359375 37.89953125 -17.07359375 37.89953125 -15.55859375 37.39453125 C-15.88859375 37.06453125 -16.21859375 36.73453125 -16.55859375 36.39453125 C-16.59940158 34.39494761 -16.60113731 32.39407871 -16.55859375 30.39453125 C-13.62980004 31.0221299 -11.19763746 31.98075784 -8.55859375 33.39453125 C-8.52334243 31.50794251 -8.52334243 31.50794251 -9.55859375 29.39453125 C-11.80023697 27.79951588 -14.09426018 26.64910107 -16.55859375 25.39453125 C-16.55859375 23.08453125 -16.55859375 20.77453125 -16.55859375 18.39453125 C-15.89859375 18.06453125 -15.23859375 17.73453125 -14.55859375 17.39453125 C-15.87859375 17.06453125 -17.19859375 16.73453125 -18.55859375 16.39453125 C-18.88859375 18.37453125 -19.21859375 20.35453125 -19.55859375 22.39453125 C-24.43359375 20.51953125 -24.43359375 20.51953125 -25.55859375 19.39453125 C-25.87109375 16.51953125 -25.87109375 16.51953125 -25.55859375 13.39453125 C-23.80859375 11.45703125 -23.80859375 11.45703125 -21.55859375 10.39453125 C-19.49609375 10.64453125 -19.49609375 10.64453125 -17.55859375 11.39453125 C-16.56859375 11.72453125 -15.57859375 12.05453125 -14.55859375 12.39453125 C-14.22859375 11.73453125 -13.89859375 11.07453125 -13.55859375 10.39453125 C-14.21859375 10.06453125 -14.87859375 9.73453125 -15.55859375 9.39453125 C-14.22093022 5.38154066 -12.39736317 4.73091635 -8.80859375 2.58203125 C-7.761875 1.93621094 -6.71515625 1.29039063 -5.63671875 0.625 C-2.55859375 -0.60546875 -2.55859375 -0.60546875 0 0 Z " fill="#FEFCF7" transform="translate(42.55859375,13.60546875)"/>
<path d="M0 0 C0.80566406 0.46019531 1.61132812 0.92039062 2.44140625 1.39453125 C3.32441406 1.89210938 4.20742188 2.3896875 5.1171875 2.90234375 C5.98730469 3.43601562 6.85742188 3.9696875 7.75390625 4.51953125 C8.63691406 5.05835938 9.51992188 5.5971875 10.4296875 6.15234375 C11.09355469 6.56226563 11.75742187 6.9721875 12.44140625 7.39453125 C12.11140625 8.05453125 11.78140625 8.71453125 11.44140625 9.39453125 C10.78140625 9.39453125 10.12140625 9.39453125 9.44140625 9.39453125 C9.44140625 10.05453125 9.44140625 10.71453125 9.44140625 11.39453125 C10.0446875 11.28753906 10.64796875 11.18054687 11.26953125 11.0703125 C17.73298292 10.10079475 17.73298292 10.10079475 21.00390625 11.45703125 C22.44140625 13.39453125 22.44140625 13.39453125 22.94140625 16.39453125 C22.44140625 19.39453125 22.44140625 19.39453125 20.56640625 21.26953125 C18.44140625 22.39453125 18.44140625 22.39453125 16.44140625 22.39453125 C16.31765625 21.42515625 16.19390625 20.45578125 16.06640625 19.45703125 C15.86015625 18.44640625 15.65390625 17.43578125 15.44140625 16.39453125 C14.78140625 16.06453125 14.12140625 15.73453125 13.44140625 15.39453125 C13.44140625 16.38453125 13.44140625 17.37453125 13.44140625 18.39453125 C11.61609375 18.05421875 11.61609375 18.05421875 9.75390625 17.70703125 C5.60555624 17.16023643 3.97154174 18.16497199 0.44140625 20.39453125 C-3.46244841 20.16029997 -5.27859346 19.58119811 -8.55859375 17.39453125 C-11.06756061 16.93851864 -11.06756061 16.93851864 -13.74609375 16.76953125 C-14.64714844 16.69476562 -15.54820313 16.62 -16.4765625 16.54296875 C-17.16363281 16.49398438 -17.85070312 16.445 -18.55859375 16.39453125 C-18.88859375 18.37453125 -19.21859375 20.35453125 -19.55859375 22.39453125 C-24.43359375 20.51953125 -24.43359375 20.51953125 -25.55859375 19.39453125 C-25.87109375 16.51953125 -25.87109375 16.51953125 -25.55859375 13.39453125 C-23.80859375 11.45703125 -23.80859375 11.45703125 -21.55859375 10.39453125 C-19.49609375 10.64453125 -19.49609375 10.64453125 -17.55859375 11.39453125 C-16.56859375 11.72453125 -15.57859375 12.05453125 -14.55859375 12.39453125 C-14.22859375 11.73453125 -13.89859375 11.07453125 -13.55859375 10.39453125 C-14.21859375 10.06453125 -14.87859375 9.73453125 -15.55859375 9.39453125 C-14.22093022 5.38154066 -12.39736317 4.73091635 -8.80859375 2.58203125 C-7.761875 1.93621094 -6.71515625 1.29039063 -5.63671875 0.625 C-2.55859375 -0.60546875 -2.55859375 -0.60546875 0 0 Z " fill="#FFB90D" transform="translate(42.55859375,13.60546875)"/>
<path d="M0 0 C4.875 1.875 4.875 1.875 6 3 C6.23363881 4.84891946 6.41303635 6.70488031 6.5625 8.5625 C6.68818359 10.08037109 6.68818359 10.08037109 6.81640625 11.62890625 C6.87699219 12.41136719 6.93757813 13.19382812 7 14 C7.99 13.67 8.98 13.34 10 13 C9.67 12.67 9.34 12.34 9 12 C8.95919217 10.00041636 8.95745644 7.99954746 9 6 C11.92879371 6.62759865 14.36095629 7.58622659 17 9 C17.66 8.01 18.32 7.02 19 6 C19 9.96 19 13.92 19 18 C23.53140653 18.93380961 23.53140653 18.93380961 28 18 C28 19.65 28 21.3 28 23 C22.25 24.125 22.25 24.125 20 23 C19.67 24.65 19.34 26.3 19 28 C18.34 28 17.68 28 17 28 C16.67 27.01 16.34 26.02 16 25 C15.29488281 24.8865625 14.58976562 24.773125 13.86328125 24.65625 C8.30462048 23.38223225 3.75537215 21.3812675 0 17 C-1.38627972 11.45623754 -0.62486629 5.61117307 0 0 Z " fill="#FFBA0E" transform="translate(17,38)"/>
<path d="M0 0 C1.56039777 11.73632513 1.56039777 11.73632513 0 17 C-3.2279169 21.12772883 -8.21386412 23.18520555 -13 25 C-13.66 25 -14.32 25 -15 25 C-15.66 24.34 -16.32 23.68 -17 23 C-17.061875 23.763125 -17.12375 24.52625 -17.1875 25.3125 C-18 28 -18 28 -20.25 29.9375 C-23 31 -23 31 -25.75 30.25 C-28 29 -28 29 -29 28 C-29.04080783 26.00041636 -29.04254356 23.99954746 -29 22 C-26.03 22.33 -23.06 22.66 -20 23 C-20.33 22.01 -20.66 21.02 -21 20 C-20.67 19.34 -20.34 18.68 -20 18 C-19.77141886 15.9625237 -19.58975722 13.91959697 -19.4375 11.875 C-19.35371094 10.77929688 -19.26992188 9.68359375 -19.18359375 8.5546875 C-19.12300781 7.71164063 -19.06242187 6.86859375 -19 6 C-18.67 6 -18.34 6 -18 6 C-17.67 8.64 -17.34 11.28 -17 14 C-16.34 14 -15.68 14 -15 14 C-15 12.02 -15 10.04 -15 8 C-13.02 7.34 -11.04 6.68 -9 6 C-9 7.98 -9 9.96 -9 12 C-10.32 12.33 -11.64 12.66 -13 13 C-13 13.99 -13 14.98 -13 16 C-9.70924004 15.62095792 -9.70924004 15.62095792 -7 14 C-6.79643028 11.22240429 -6.68068991 8.44699839 -6.57421875 5.6640625 C-6 3 -6 3 -4.08203125 1.1484375 C-2 0 -2 0 0 0 Z " fill="#FFF9E9" transform="translate(65,38)"/>
<path d="M0 0 C0.94875 0.33 1.8975 0.66 2.875 1 C6.86951273 2.17964225 10.53946353 2.04390865 14.66796875 1.77734375 C17.62322371 2.05950377 18.88931934 2.94649353 21 5 C21.5 8 21.5 8 21 11 C19.125 12.875 19.125 12.875 17 14 C16.34 14 15.68 14 15 14 C14.87625 13.030625 14.7525 12.06125 14.625 11.0625 C14.315625 9.5465625 14.315625 9.5465625 14 8 C13.34 7.67 12.68 7.34 12 7 C12 7.99 12 8.98 12 10 C10.1746875 9.6596875 10.1746875 9.6596875 8.3125 9.3125 C4.16414999 8.76570518 2.53013549 9.77044074 -1 12 C-4.1875 11.875 -4.1875 11.875 -7 11 C-7.66 10.01 -8.32 9.02 -9 8 C-3.555 7.01 -3.555 7.01 2 6 C2 5.34 2 4.68 2 4 C1.01 3.67 0.02 3.34 -1 3 C-0.67 2.01 -0.34 1.02 0 0 Z " fill="#FFB809" transform="translate(44,22)"/>
<path d="M0 0 C4.875 1.875 4.875 1.875 6 3 C6.02642503 4.7499245 6.04612255 6.49995263 6.0625 8.25 C6.28532654 12.48798625 6.28532654 12.48798625 8.84375 15.62890625 C10.2993212 16.40538173 11.76945793 17.15526748 13.25390625 17.875 C13.83011719 18.24625 14.40632813 18.6175 15 19 C15.5 22.3125 15.5 22.3125 15 25 C12.5625 24.375 12.5625 24.375 9 23 C8.20722656 22.71253906 7.41445313 22.42507812 6.59765625 22.12890625 C3.61528488 20.69190267 1.99986472 19.67084329 0 17 C-1.14671083 11.42606126 -0.50694215 5.62017351 0 0 Z " fill="#FEF9E9" transform="translate(17,38)"/>
<path d="M0 0 C0.33 0 0.66 0 1 0 C1.33 2.64 1.66 5.28 2 8 C2.66 8 3.32 8 4 8 C4 6.02 4 4.04 4 2 C5.98 1.34 7.96 0.68 10 0 C10 1.98 10 3.96 10 6 C8.68 6.33 7.36 6.66 6 7 C6.33 8.65 6.66 10.3 7 12 C5.68 12.33 4.36 12.66 3 13 C2.42508119 15.217544 1.97319922 17.27470804 1.75 19.5625 C1 22 1 22 -1.25 23.9375 C-4 25 -4 25 -6.75 24.25 C-9 23 -9 23 -10 22 C-10.04080783 20.00041636 -10.04254356 17.99954746 -10 16 C-7.03 16.33 -4.06 16.66 -1 17 C-1.33 16.01 -1.66 15.02 -2 14 C-1.67 13.34 -1.34 12.68 -1 12 C-0.77141886 9.9625237 -0.58975722 7.91959697 -0.4375 5.875 C-0.35371094 4.77929688 -0.26992188 3.68359375 -0.18359375 2.5546875 C-0.12300781 1.71164063 -0.06242187 0.86859375 0 0 Z " fill="#FFC324" transform="translate(46,44)"/>
<path d="M0 0 C0.804375 0.46019531 1.60875 0.92039062 2.4375 1.39453125 C3.32050781 1.89210938 4.20351563 2.3896875 5.11328125 2.90234375 C5.98339844 3.43601562 6.85351562 3.9696875 7.75 4.51953125 C8.63300781 5.05835938 9.51601563 5.5971875 10.42578125 6.15234375 C11.42158203 6.76722656 11.42158203 6.76722656 12.4375 7.39453125 C11.1175 8.71453125 9.7975 10.03453125 8.4375 11.39453125 C5.4655615 10.27001398 3.10309313 9.17159334 0.4375 7.39453125 C-2.96970184 7.61201222 -4.95685963 7.89900731 -7.625 10.08203125 C-8.264375 10.51515625 -8.90375 10.94828125 -9.5625 11.39453125 C-12.3125 10.58203125 -12.3125 10.58203125 -14.5625 9.39453125 C-14.5625 8.40453125 -14.5625 7.41453125 -14.5625 6.39453125 C-12.11328125 4.5 -12.11328125 4.5 -8.875 2.58203125 C-7.81925781 1.93621094 -6.76351562 1.29039063 -5.67578125 0.625 C-2.5625 -0.60546875 -2.5625 -0.60546875 0 0 Z " fill="#FFFAEE" transform="translate(42.5625,13.60546875)"/>
<path d="M0 0 C2 0.75 2 0.75 5 2.75 C5.4375 5.6875 5.4375 5.6875 5 8.75 C3.125 10.625 3.125 10.625 1 11.75 C0.34 11.75 -0.32 11.75 -1 11.75 C-1.433125 10.0484375 -1.433125 10.0484375 -1.875 8.3125 C-2.24625 7.136875 -2.6175 5.96125 -3 4.75 C-3.66 4.42 -4.32 4.09 -5 3.75 C-5 3.09 -5 2.43 -5 1.75 C-2 -0.25 -2 -0.25 0 0 Z " fill="#FFF9EA" transform="translate(60,24.25)"/>
<path d="M0 0 C1.875 0.75 1.875 0.75 3.875 1.75 C3.875 2.41 3.875 3.07 3.875 3.75 C2.885 4.41 1.895 5.07 0.875 5.75 C0.14156572 8.81556598 0.14156572 8.81556598 -0.125 11.75 C-5 9.875 -5 9.875 -6.125 8.75 C-6.4375 5.875 -6.4375 5.875 -6.125 2.75 C-4.0687035 0.47338602 -3.09433449 -0.36403935 0 0 Z " fill="#FFF9EA" transform="translate(23.125,24.25)"/>
<path d="M0 0 C1.093125 0.185625 2.18625 0.37125 3.3125 0.5625 C6.93624133 1.2578068 6.93624133 1.2578068 10 0 C10.25 2.8125 10.25 2.8125 10 6 C8.3125 8 8.3125 8 6 9 C3.60736593 8.33228817 1.77902615 7.77902615 0 6 C-0.04080783 4.00041636 -0.04254356 1.99954746 0 0 Z " fill="#FFFBF2" transform="translate(36,60)"/>
<path d="M0 0 C2.16874252 0.50603992 3.99967627 0.99983813 6 2 C6 3.98 6 5.96 6 8 C4.02 7.34 2.04 6.68 0 6 C0 4.02 0 2.04 0 0 Z " fill="#FFF6DF" transform="translate(26,44)"/>
<path d="M0 0 C0 1.98 0 3.96 0 6 C-1.98 6.66 -3.96 7.32 -6 8 C-6 6.02 -6 4.04 -6 2 C-2.25 0 -2.25 0 0 0 Z " fill="#FFF7E2" transform="translate(56,44)"/>
<path d="M0 0 C0 0.66 0 1.32 0 2 C-5.41538462 4.21538462 -5.41538462 4.21538462 -8.375 3.125 C-8.91125 2.75375 -9.4475 2.3825 -10 2 C-10 1.34 -10 0.68 -10 0 C-6.22996568 -2.61002376 -4.07631429 -1.66758312 0 0 Z " fill="#FFF8E9" transform="translate(46,26)"/>
<path d="M0 0 C0.99 0 1.98 0 3 0 C3 1.65 3 3.3 3 5 C2.01 4.67 1.02 4.34 0 4 C-0.33 5.65 -0.66 7.3 -1 9 C-1.33 9 -1.66 9 -2 9 C-2 6.69 -2 4.38 -2 2 C-1.34 2 -0.68 2 0 2 C0 1.34 0 0.68 0 0 Z " fill="#FFC123" transform="translate(37,57)"/>
<path d="M0 0 C0.33 0.66 0.66 1.32 1 2 C3.02463255 2.65213292 3.02463255 2.65213292 5 3 C3.02253397 3.73080266 1.01927511 4.39421747 -1 5 C-1.66 4.67 -2.32 4.34 -3 4 C-2.67 3.01 -2.34 2.02 -2 1 C-1.34 0.67 -0.68 0.34 0 0 Z " fill="#FFBB18" transform="translate(51,41)"/>
</svg>
