<?xml version="1.0" encoding="UTF-8"?>
<svg version="1.1" xmlns="http://www.w3.org/2000/svg" width="83" height="83">
<path d="M0 0 C8.85497137 6.36728711 15.51120262 15.17941641 18.171875 25.83984375 C20.12202156 38.33182033 18.2312247 49.41672028 11.43359375 60.0390625 C4.5693133 69.15273718 -4.28995332 74.89601492 -15.515625 77.1015625 C-29.06503848 78.92762901 -40.5107482 75.19670758 -51.34375 67.0390625 C-57.93828047 61.23587569 -63.29313847 51.19985342 -64.4140625 42.4921875 C-65.24046617 29.47632976 -63.32909989 19.05133127 -55.4140625 8.4921875 C-41.41267069 -6.8235112 -17.97190686 -11.2251716 0 0 Z " fill="#FC970B" transform="translate(64.4140625,5.5078125)"/>
<path d="M0 0 C2.475 0.495 2.475 0.495 5 1 C4.125 7.75 4.125 7.75 3 10 C4.32 9.67 5.64 9.34 7 9 C7.66 6.69 8.32 4.38 9 2 C11.475 2.495 11.475 2.495 14 3 C13.86078125 3.88751953 13.86078125 3.88751953 13.71875 4.79296875 C13.48134424 7.39171398 13.42179825 9.44734635 14 12 C15.92601743 13.8096808 17.78681917 14.86335546 20.15234375 16.02734375 C22 17 22 17 23 19 C23.46194226 26.16010499 23.46194226 26.16010499 21.625 29.5 C20 31 20 31 18 31 C18.66 31.66 19.32 32.32 20 33 C22.48951145 36.73426717 22.70088518 39.68491174 22 44 C20.03587444 49.30313901 20.03587444 49.30313901 17.28125 51.15625 C14.33640352 52.24543979 11.88121727 52.19306994 8.75 52.125 C7.67234375 52.10695312 6.5946875 52.08890625 5.484375 52.0703125 C4.25460938 52.03550781 4.25460938 52.03550781 3 52 C2.34 54.64 1.68 57.28 1 60 C-0.65 60 -2.3 60 -4 60 C-5.31223496 56.06329512 -4.24296256 53.87511856 -3 50 C-4.32 50 -5.64 50 -7 50 C-7.66 52.64 -8.32 55.28 -9 58 C-10.65 57.67 -12.3 57.34 -14 57 C-13.67 54.03 -13.34 51.06 -13 48 C-15.97 47.01 -18.94 46.02 -22 45 C-21.01 42.03 -21.01 42.03 -20 39 C-18.02 39.33 -16.04 39.66 -14 40 C-13.89042969 39.42894531 -13.78085937 38.85789063 -13.66796875 38.26953125 C-12.45922393 32.08822644 -11.04018456 25.98745587 -9.48828125 19.8828125 C-9.01982689 17.11705796 -9.06320872 15.60289657 -10 13 C-11.32 12.67 -12.64 12.34 -14 12 C-13.67 10.02 -13.34 8.04 -13 6 C-9.37 6.66 -5.74 7.32 -2 8 C-1.34 5.36 -0.68 2.72 0 0 Z " fill="#FFFAF5" transform="translate(40,10)"/>
<path d="M0 0 C4.88017275 -0.34858377 7.79586103 0.51573607 12 3 C14 5 14 5 14.25 7.5 C14 10 14 10 12 12 C9.25 12.23046875 9.25 12.23046875 6 12.1875 C4.9275 12.18105469 3.855 12.17460938 2.75 12.16796875 C0 12 0 12 -2 11 C-1.34 7.37 -0.68 3.74 0 0 Z " fill="#FF9508" transform="translate(37,43)"/>
<path d="M0 0 C4.87362847 0.45336079 7.39042389 1.7089159 11 5 C10.125 9.875 10.125 9.875 9 11 C7.31391034 11.07205511 5.62499341 11.08386068 3.9375 11.0625 C3.01839844 11.05347656 2.09929688 11.04445313 1.15234375 11.03515625 C0.44207031 11.02355469 -0.26820312 11.01195312 -1 11 C-2.26264601 6.70700357 -1.62950412 4.12168689 0 0 Z " fill="#FF9305" transform="translate(42,27)"/>
</svg>
