<?xml version="1.0" encoding="UTF-8"?>
<svg version="1.1" xmlns="http://www.w3.org/2000/svg" width="83" height="83">
<path d="M0 0 C10.34453734 6.9243922 16.65874343 16.05145783 19.1328125 28.3046875 C20.29530614 39.58207427 19.03382441 50.22187056 12.3203125 59.6171875 C11.27790146 60.86343634 10.21548453 62.09325107 9.1328125 63.3046875 C8.64296875 63.90925781 8.153125 64.51382813 7.6484375 65.13671875 C1.07468955 72.60540764 -9.01431933 76.83765061 -18.84765625 77.5078125 C-32.10286057 77.70155483 -42.84348392 74.27700557 -52.6171875 65.1171875 C-61.51625851 55.78325787 -64.39673709 44.83206743 -64.171875 32.15234375 C-63.26304781 20.6754876 -58.10356056 10.8688147 -49.51171875 3.203125 C-34.65605379 -7.89729238 -16.04908175 -9.48951155 0 0 Z " fill="#5781EC" transform="translate(63.8671875,5.6953125)"/>
<path d="M0 0 C2.69371432 3.25457031 5.02540034 6.51849546 7.1640625 10.16015625 C8.01097656 11.5977832 8.01097656 11.5977832 8.875 13.06445312 C9.4525 14.05380859 10.03 15.04316406 10.625 16.0625 C11.21023437 17.05572266 11.79546875 18.04894531 12.3984375 19.07226562 C17.07340407 27.03364792 17.07340407 27.03364792 19 31 C12.25862885 28.99712886 6.23619197 26.24984652 0 23 C0 29.27 0 35.54 0 42 C-3.12912467 40.74835013 -5.71373125 39.69858563 -8.55078125 38.0546875 C-9.16630859 37.70019531 -9.78183594 37.34570312 -10.41601562 36.98046875 C-11.04185547 36.61566406 -11.66769531 36.25085937 -12.3125 35.875 C-12.95767578 35.50246094 -13.60285156 35.12992188 -14.26757812 34.74609375 C-15.84675945 33.83367787 -17.42361864 32.91724491 -19 32 C-17.73676233 28.62927251 -16.29571698 25.66608619 -14.35546875 22.63671875 C-13.84306641 21.83169922 -13.33066406 21.02667969 -12.80273438 20.19726562 C-12.00319336 18.95493164 -12.00319336 18.95493164 -11.1875 17.6875 C-10.13916668 16.04567266 -9.09098808 14.40374653 -8.04296875 12.76171875 C-7.53556152 11.96942871 -7.0281543 11.17713867 -6.50537109 10.36083984 C-4.31272329 6.92215929 -2.15537417 3.46214447 0 0 Z " fill="#FBFCFE" transform="translate(43,10)"/>
<path d="M0 0 C5.15583853 1.87053442 9.53592535 4.72689376 14.16015625 7.63671875 C16.7644657 9.14850992 16.7644657 9.14850992 18.92578125 8.96484375 C22.7942639 7.16538007 26.4041535 4.92292893 30.04296875 2.70703125 C31.66278544 1.747522 33.3288372 0.86699424 35 0 C35.66 0.33 36.32 0.66 37 1 C36.20335937 2.05058594 35.40671875 3.10117187 34.5859375 4.18359375 C26.49117725 14.87828847 26.49117725 14.87828847 19 26 C14.59477393 21.90419831 11.23672412 17.36855204 7.8125 12.4375 C7.01295898 11.30538086 7.01295898 11.30538086 6.19726562 10.15039062 C3.88068906 6.84307691 1.73860254 3.65365875 0 0 Z " fill="#B9C9F8" transform="translate(25,46)"/>
<path d="M0 0 C2.69371432 3.25457031 5.02540034 6.51849546 7.1640625 10.16015625 C8.01097656 11.5977832 8.01097656 11.5977832 8.875 13.06445312 C9.4525 14.05380859 10.03 15.04316406 10.625 16.0625 C11.21023437 17.05572266 11.79546875 18.04894531 12.3984375 19.07226562 C17.07340407 27.03364792 17.07340407 27.03364792 19 31 C12.27644591 29.00242234 6.20763929 26.24481825 0 23 C-0.19588601 19.3545658 -0.38030536 15.7086421 -0.5625 12.0625 C-0.61857422 11.02158203 -0.67464844 9.98066406 -0.73242188 8.90820312 C-0.78076172 7.91884766 -0.82910156 6.92949219 -0.87890625 5.91015625 C-0.9260376 4.99371338 -0.97316895 4.07727051 -1.02172852 3.13305664 C-1 1 -1 1 0 0 Z " fill="#BBCBF8" transform="translate(43,10)"/>
<path d="M0 0 C4.58294384 1.52764795 8.96083215 3.19898522 13.375 5.125 C14.01566406 5.40214844 14.65632813 5.67929687 15.31640625 5.96484375 C16.87856925 6.64100385 18.43942315 7.32018707 20 8 C16.1521704 11.24683526 12.16526157 13.82455791 7.8125 16.3125 C6.86987305 16.8703418 6.86987305 16.8703418 5.90820312 17.43945312 C4.30802143 18.35848796 2.65675589 19.18737069 1 20 C0.34 19.67 -0.32 19.34 -1 19 C-0.67 12.73 -0.34 6.46 0 0 Z " fill="#799AF1" transform="translate(43,33)"/>
<path d="M0 0 C0 6.27 0 12.54 0 19 C-3.12912467 17.74835013 -5.71373125 16.69858563 -8.55078125 15.0546875 C-9.16630859 14.70019531 -9.78183594 14.34570312 -10.41601562 13.98046875 C-11.04185547 13.61566406 -11.66769531 13.25085937 -12.3125 12.875 C-12.95767578 12.50246094 -13.60285156 12.12992188 -14.26757812 11.74609375 C-15.84675945 10.83367787 -17.42361864 9.91724491 -19 9 C-17.50567562 6.01135124 -15.30616995 5.72246798 -12.25 4.5 C-11.20328125 4.0771875 -10.1565625 3.654375 -9.078125 3.21875 C-8.06234375 2.8165625 -7.0465625 2.414375 -6 2 C-5.06671875 1.6184375 -4.1334375 1.236875 -3.171875 0.84375 C-1 0 -1 0 0 0 Z " fill="#BCCCF8" transform="translate(43,33)"/>
<path d="M0 0 C6.57131728 2.52457387 12.90993436 5.05620061 18 10 C19.12241743 14.84302336 18.80174008 19.12103474 18 24 C13.37803878 19.71750486 9.83389955 14.87203281 6.1875 9.75 C5.59001953 8.92242187 4.99253906 8.09484375 4.37695312 7.2421875 C0 1.13946429 0 1.13946429 0 0 Z " fill="#F8F9FE" transform="translate(25,46)"/>
<path d="M0 0 C0.66 0.33 1.32 0.66 2 1 C-1.63 4.63 -5.26 8.26 -9 12 C-9 7.8407692 -6.75316432 5.85455565 -4 3 C-1.6875 1.125 -1.6875 1.125 0 0 Z " fill="#879CD4" transform="translate(17,7)"/>
</svg>
