<?xml version="1.0" encoding="UTF-8"?>
<svg version="1.1" xmlns="http://www.w3.org/2000/svg" width="83" height="83">
<path d="M0 0 C6.59453047 5.80318681 11.94938847 15.83920908 13.0703125 24.546875 C13.89589856 37.54985549 11.9950623 48.00351222 4.0703125 58.546875 C-0.85251869 63.83436035 -6.18532541 67.91174706 -12.9296875 70.546875 C-13.81011719 70.90136719 -14.69054688 71.25585938 -15.59765625 71.62109375 C-25.82448201 74.46254475 -37.94659795 73.74787926 -47.421875 69.0234375 C-57.69405338 62.97533247 -65.0409726 55.00394901 -68.9296875 43.546875 C-71.91111485 31.60128943 -70.13994311 19.95715569 -64.1796875 9.359375 C-57.68705217 -0.75963469 -49.03527195 -6.87469054 -37.2421875 -9.828125 C-23.29271848 -12.2530327 -11.19397159 -8.42946848 0 0 Z " fill="#FF0101" transform="translate(69.9296875,10.453125)"/>
<path d="M0 0 C9.33859264 0.18987896 18.54288237 1.51328766 27.75 3 C29.47150269 3.23819458 29.47150269 3.23819458 31.2277832 3.48120117 C40.03740759 4.99558394 44.96958748 8.47360914 51 15 C49.41767089 19.25769409 47.58783674 21.82183002 44.4375 25.125 C40.14653893 29.71848926 36.13336287 34.44663601 32.18359375 39.33984375 C28.90659887 43.3320325 25.46764396 47.17330843 22 51 C19.74915043 48.20516507 18.26587509 45.58674389 16.94921875 42.25390625 C16.5833667 41.3402832 16.21751465 40.42666016 15.84057617 39.48535156 C15.46006104 38.52081055 15.0795459 37.55626953 14.6875 36.5625 C11.73432933 29.1984693 8.67031655 21.95312924 5.28515625 14.77734375 C0 3.3556231 0 3.3556231 0 0 Z " fill="#FEEDEC" transform="translate(17,20)"/>
<path d="M0 0 C1.42073951 0.94644752 2.84091054 1.89375882 4.25830078 2.84521484 C5.9054912 3.93733857 7.57525271 4.99519575 9.24609375 6.05078125 C12.81387167 8.57923096 15.29720939 10.54887974 18 14 C18.81667409 19.31382606 18.13782538 23.73228992 17 29 C16.71189453 30.45986328 16.71189453 30.45986328 16.41796875 31.94921875 C16.28003906 32.62597656 16.14210938 33.30273438 16 34 C15.34 34 14.68 34 14 34 C12.00150987 29.48137737 10.00780682 24.96068543 8.01855469 20.43798828 C7.34083869 18.89899466 6.66180688 17.36057979 5.98144531 15.82275391 C5.00501401 13.61510821 4.0332986 11.40543985 3.0625 9.1953125 C2.75626709 8.50567413 2.45003418 7.81603577 2.13452148 7.10549927 C0 2.22774341 0 2.22774341 0 0 Z " fill="#FF0909" transform="translate(23,26)"/>
<path d="M0 0 C0 4.36998459 -2.74394121 6.27156524 -5.625 9.25 C-6.72884267 10.41443817 -7.83171702 11.57979508 -8.93359375 12.74609375 C-9.46452637 13.30538574 -9.99545898 13.86467773 -10.54248047 14.44091797 C-12.32273634 16.34522517 -14.01597879 18.31242425 -15.6875 20.3125 C-16.450625 21.199375 -17.21375 22.08625 -18 23 C-18.33 23 -18.66 23 -19 23 C-19.26532622 16.10151834 -18.23510365 9.79307008 -17 3 C-11.39 2.01 -5.78 1.02 0 0 Z " fill="#FF0C0D" transform="translate(61,38)"/>
<path d="M0 0 C9.03495036 1.16022587 18.02558585 2.42905972 27 4 C27 4.66 27 5.32 27 6 C25.171875 7.76171875 25.171875 7.76171875 22.75 9.6875 C21.96109375 10.33074219 21.1721875 10.97398438 20.359375 11.63671875 C18 13 18 13 16.06835938 12.73950195 C13.84429792 11.94433173 12.39213236 10.9969416 10.546875 9.53125 C9.61875 8.79841797 9.61875 8.79841797 8.671875 8.05078125 C8.03765625 7.53902344 7.4034375 7.02726562 6.75 6.5 C5.77546875 5.73236328 5.77546875 5.73236328 4.78125 4.94921875 C3.16412565 3.66163445 1.57896768 2.33410103 0 1 C0 0.67 0 0.34 0 0 Z " fill="#FF0A0A" transform="translate(26,24)"/>
<path d="M0 0 C4 2 4 2 6 5 C4.06524329 5.53093324 2.12706845 6.04942317 0.1875 6.5625 C-1.43091797 6.99755859 -1.43091797 6.99755859 -3.08203125 7.44140625 C-6 8 -6 8 -9 7 C-6.03 4.69 -3.06 2.38 0 0 Z " fill="#FE1314" transform="translate(56,30)"/>
<path d="M0 0 C5.94 0.99 5.94 0.99 12 2 C11.67 2.99 11.34 3.98 11 5 C5.9697924 4.47462276 0.98114761 3.89405214 -4 3 C-2.68 2.67 -1.36 2.34 0 2 C0 1.34 0 0.68 0 0 Z " fill="#FDDFDF" transform="translate(39,23)"/>
</svg>
