<?xml version="1.0" encoding="UTF-8"?>
<svg version="1.1" xmlns="http://www.w3.org/2000/svg" width="83" height="83">
<path d="M0 0 C1.22948837 1.03794703 2.4385712 2.10059503 3.625 3.1875 C4.54732422 3.97447266 4.54732422 3.97447266 5.48828125 4.77734375 C12.87549077 11.50017897 17.02121334 20.81965699 17.9609375 30.73046875 C18.10787721 44.43994412 15.02916959 54.94453656 5.625 65.1875 C-5.68271631 74.8671883 -16.80192332 76.98458263 -31.375 76.1875 C-42.64590055 74.48357745 -52.00483663 67.82790883 -58.71875 58.81640625 C-61.23815687 54.81744205 -62.97607497 50.69251282 -64.375 46.1875 C-64.56578125 45.57648437 -64.7565625 44.96546875 -64.953125 44.3359375 C-67.05447147 33.63463601 -65.61775349 22.30358798 -60.01953125 12.9140625 C-58.57122085 10.88720451 -57.03915864 9.04012962 -55.375 7.1875 C-54.58802734 6.26324219 -54.58802734 6.26324219 -53.78515625 5.3203125 C-40.49624171 -9.25059145 -16.01909457 -11.51275968 0 0 Z " fill="#0154FB" transform="translate(65.375,6.8125)"/>
<path d="M0 0 C3.43840037 1.47360016 5.78883786 2.95012119 8 6 C8.33203125 8.2734375 8.33203125 8.2734375 8.5 10.875 C8.80789929 15.62644581 9.78194873 18.33499716 13 22 C15.9441366 24.38713778 17.65101478 24.96192889 21.4375 25.375 C26.46800747 24.8454729 29.51031569 23.28837562 33.3125 20 C35.12858909 16.77139717 35.22238671 15.19075787 35.375 11.5625 C35.5918714 7.44750423 36.00922333 5.27605711 38.9375 2.3125 C42 0 42 0 44 0 C47.34099816 5.43415363 46.64722021 11.87163361 46 18 C43.68361836 25.1663057 38.65626038 30.531621 32.0546875 34.03125 C26.63654886 36.32599107 21.3686948 37.06742288 15.70703125 35.2734375 C7.78512372 32.0091339 2.55513326 27.65720746 -1.08984375 19.828125 C-3.24979576 13.11651445 -2.89913889 6.39207731 0 0 Z " fill="#F4F9FC" transform="translate(19,35)"/>
<path d="M0 0 C0.66 0 1.32 0 2 0 C3.55078125 1.57421875 3.55078125 1.57421875 5.3125 3.6875 C8.08499308 6.95300964 10.92600859 10.01915985 14 13 C18.07376031 11.38989473 20.76507069 8.46177729 23.75 5.375 C24.25660156 4.859375 24.76320313 4.34375 25.28515625 3.8125 C26.52803902 2.54616661 27.76465276 1.2736856 29 0 C32.77070649 1.6672132 34.0709374 3.33478106 36 7 C27.6760434 16.92581766 27.6760434 16.92581766 22.8984375 20.62890625 C20.23701679 23.95294405 20.32948488 27.16014187 20.25 31.25 C20.20552734 32.36761719 20.20552734 32.36761719 20.16015625 33.5078125 C20.0897657 35.33796672 20.04258168 37.16898769 20 39 C16.7 39 13.4 39 10 39 C10.10183594 37.94683594 10.20367187 36.89367188 10.30859375 35.80859375 C10.64160127 28.65018405 10.43713902 23.15680122 5.59375 17.53125 C1.94847158 13.77368771 -1.93987547 10.30272014 -6 7 C-5.04882866 5.8274869 -4.08882991 4.66212985 -3.125 3.5 C-2.59132813 2.8503125 -2.05765625 2.200625 -1.5078125 1.53125 C-0.76144531 0.77328125 -0.76144531 0.77328125 0 0 Z " fill="#F8FBFD" transform="translate(26,12)"/>
<path d="M0 0 C0.66 0 1.32 0 2 0 C2 0.66 2 1.32 2 2 C2.61875 2.268125 3.2375 2.53625 3.875 2.8125 C6 4 6 4 8 7 C7.01 7 6.02 7 5 7 C0 1.53488372 0 1.53488372 0 0 Z " fill="#205FF2" transform="translate(27,11)"/>
</svg>
